<?xml version="1.0" encoding="UTF-8"?>
<svg version="1.1" xmlns="http://www.w3.org/2000/svg" width="248" height="377">
<path d="M0 0 C81.84 0 163.68 0 248 0 C248 124.41 248 248.82 248 377 C166.16 377 84.32 377 0 377 C0 252.59 0 128.18 0 0 Z " fill="#F9F9FB" transform="translate(0,0)"/>
<path d="M0 0 C1.39001221 -0.00700928 1.39001221 -0.00700928 2.80810547 -0.01416016 C8.17191042 -0.00162114 13.31782878 0.34197474 18.625 1.125 C18.625 1.785 18.625 2.445 18.625 3.125 C19.285 3.125 19.945 3.125 20.625 3.125 C20.625 3.785 20.625 4.445 20.625 5.125 C21.24375 5.41375 21.8625 5.7025 22.5 6 C24.625 7.125 24.625 7.125 26.625 9.125 C26.625 10.445 26.625 11.765 26.625 13.125 C27.615 13.455 28.605 13.785 29.625 14.125 C30.81540572 16.50581144 30.77448941 18.02112713 30.81445312 20.67895508 C30.83117065 21.62366165 30.84788818 22.56836823 30.8651123 23.54170227 C30.87868774 24.56563583 30.89226318 25.5895694 30.90625 26.64453125 C30.92465942 27.69525314 30.94306885 28.74597504 30.96203613 29.82853699 C31.02091145 33.19813322 31.07364916 36.5677812 31.125 39.9375 C31.1927243 44.36078263 31.2664647 48.78390657 31.34375 53.20703125 C31.35732544 54.22489212 31.37090088 55.24275299 31.3848877 56.29145813 C31.40160522 57.24562119 31.41832275 58.19978424 31.43554688 59.18286133 C31.44807495 60.0184407 31.46060303 60.85402008 31.47351074 61.71492004 C31.63335623 64.25794132 32.07145005 66.64037534 32.625 69.125 C31.965 69.125 31.305 69.125 30.625 69.125 C30.63610306 70.11534744 30.64720612 71.10569489 30.65864563 72.12605286 C30.7603665 81.4967074 30.83512994 90.86724872 30.88406086 100.23833179 C30.91006334 105.05520093 30.94528878 109.87162142 31.00219727 114.68823242 C31.05685287 119.3437352 31.08649071 123.99880871 31.09938622 128.65460777 C31.10856628 130.42350705 31.12649188 132.19238502 31.15365028 133.96109962 C31.43033615 152.74146479 31.43033615 152.74146479 25.625 161.125 C22.8515625 163.17578125 22.8515625 163.17578125 19.625 164.125 C18.97499023 164.31626465 18.32498047 164.5075293 17.65527344 164.70458984 C4.17289277 168.4256775 -10.00357977 170.5020558 -23.375 165.125 C-28.02471309 161.53874382 -30.59436576 157.97527042 -31.375 152.125 C-31.79400922 146.06398285 -31.37091551 140.86325709 -29.375 135.125 C-30.365 135.125 -31.355 135.125 -32.375 135.125 C-32.705 132.815 -33.035 130.505 -33.375 128.125 C-34.365 128.125 -35.355 128.125 -36.375 128.125 C-36.375 135.055 -36.375 141.985 -36.375 149.125 C-37.035 149.125 -37.695 149.125 -38.375 149.125 C-38.375 138.565 -38.375 128.005 -38.375 117.125 C-37.055 117.455 -35.735 117.785 -34.375 118.125 C-34.375 120.765 -34.375 123.405 -34.375 126.125 C-33.715 126.125 -33.055 126.125 -32.375 126.125 C-32.53798584 125.43639893 -32.70097168 124.74779785 -32.86889648 124.03833008 C-33.4306184 120.80483873 -33.48764124 117.79343091 -33.47265625 114.51171875 C-33.46943359 113.26455078 -33.46621094 112.01738281 -33.46289062 110.73242188 C-33.45032227 108.79206055 -33.45032227 108.79206055 -33.4375 106.8125 C-33.43298828 105.49958984 -33.42847656 104.18667969 -33.42382812 102.83398438 C-33.41205949 99.5976099 -33.3956176 96.36132822 -33.375 93.125 C-34.695 93.125 -36.015 93.125 -37.375 93.125 C-37.375 89.165 -37.375 85.205 -37.375 81.125 C-36.715 81.455 -36.055 81.785 -35.375 82.125 C-35.045 83.775 -34.715 85.425 -34.375 87.125 C-34.045 80.525 -33.715 73.925 -33.375 67.125 C-36.345 67.62 -36.345 67.62 -39.375 68.125 C-39.375 67.135 -39.375 66.145 -39.375 65.125 C-38.715 65.125 -38.055 65.125 -37.375 65.125 C-37.44428711 64.31667725 -37.51357422 63.50835449 -37.58496094 62.67553711 C-38.29275342 53.74941755 -38.59164416 44.87850506 -38.61523438 35.92700195 C-38.62509735 33.66517424 -38.65633543 31.40420045 -38.6875 29.14257812 C-38.69401927 27.67969275 -38.69927394 26.21680108 -38.703125 24.75390625 C-38.7124707 23.45525635 -38.72181641 22.15660645 -38.73144531 20.81860352 C-38.18897329 15.19733011 -36.21311732 10.58886232 -32.4375 6.3125 C-31.95410156 5.74917969 -31.47070312 5.18585938 -30.97265625 4.60546875 C-23.61430897 -2.21314645 -9.41181517 0.03303495 0 0 Z " fill="#D6D6D6" transform="translate(128.375,191.875)"/>
<path d="M0 0 C0.309375 0.639375 0.61875 1.27875 0.9375 1.9375 C1.8345163 3.93610821 1.8345163 3.93610821 3 5 C3 4.01 3 3.02 3 2 C3.66 2 4.32 2 5 2 C5 2.99 5 3.98 5 5 C5.66 5 6.32 5 7 5 C7 4.34 7 3.68 7 3 C14.92278249 2.83697047 22.73221096 3.34921398 30.625 4 C36.750625 4.495 36.750625 4.495 43 5 C43 22.16 43 39.32 43 57 C30.79 57 18.58 57 6 57 C6 43.47 6 29.94 6 16 C6.66 16 7.32 16 8 16 C8 28.21 8 40.42 8 53 C8.66 53 9.32 53 10 53 C10 40.13 10 27.26 10 14 C19.9 14 29.8 14 40 14 C40 13.34 40 12.68 40 12 C29.44 11.67 18.88 11.34 8 11 C8 11.66 8 12.32 8 13 C6.68 13 5.36 13 4 13 C4.33 29.5 4.66 46 5 63 C5.66 63 6.32 63 7 63 C7 61.68 7 60.36 7 59 C18.55 59 30.1 59 42 59 C42 67 42 67 41 69 C36.38 69 31.76 69 27 69 C26.67 66.69 26.34 64.38 26 62 C25.01 62 24.02 62 23 62 C22.67 64.31 22.34 66.62 22 69 C16.72 69 11.44 69 6 69 C6 69.66 6 70.32 6 71 C17.55 71 29.1 71 41 71 C41 73.31 41 75.62 41 78 C35.75614911 79.7479503 31.52677733 80.19392201 26 80 C26 78.02 26 76.04 26 74 C25.01 74.495 25.01 74.495 24 75 C23.53348793 77.12576782 23.53348793 77.12576782 23.375 79.5625 C23.30023438 80.38878906 23.22546875 81.21507812 23.1484375 82.06640625 C23.09945312 82.70449219 23.05046875 83.34257812 23 84 C23.84304687 83.75443359 23.84304687 83.75443359 24.703125 83.50390625 C27.13059056 82.97135003 29.26889681 82.90101319 31.75 82.9375 C32.54921875 82.94652344 33.3484375 82.95554687 34.171875 82.96484375 C34.77515625 82.97644531 35.3784375 82.98804688 36 83 C36 82.34 36 81.68 36 81 C38.31 81 40.62 81 43 81 C42.67 80.01 42.34 79.02 42 78 C41.96045766 75.66700175 41.95598268 73.33291811 42 71 C42.99 71 43.98 71 45 71 C45.05429278 73.70860665 45.09381211 76.41610901 45.125 79.125 C45.14175781 79.88554687 45.15851563 80.64609375 45.17578125 81.4296875 C45.21459896 85.93254227 45.23891579 89.97484538 43 94 C37.18126316 96.71801399 30.88236537 96.29877067 24.5625 96.25 C23.56412109 96.25773437 22.56574219 96.26546875 21.53710938 96.2734375 C15.69673143 96.25807819 10.56055127 95.84701352 5 94 C3.55792059 91.11584117 3.90605113 88.58278472 3.9375 85.375 C3.94652344 84.18648438 3.95554687 82.99796875 3.96484375 81.7734375 C3.97644531 80.85820312 3.98804687 79.94296875 4 79 C5.32 79 6.64 79 8 79 C7.19016663 78.62926865 6.38033325 78.25853729 5.54595947 77.87657166 C3 76 3 76 2.32952881 73.29029846 C2.30811829 72.19620163 2.28670776 71.1021048 2.26464844 69.97485352 C2.22821228 68.73248428 2.19177612 67.49011505 2.15423584 66.21009827 C2.13888685 64.84970533 2.12394376 63.48930776 2.109375 62.12890625 C2.07631743 60.72699106 2.04098283 59.32512788 2.003479 57.92332458 C1.91017123 54.22426584 1.84570201 50.52526219 1.7878418 46.82550049 C1.71336904 42.37190931 1.60717934 37.91899221 1.50378799 33.46599483 C1.4234572 29.99089014 1.34819132 26.51597233 1.28997803 23.04042053 C1.14525826 15.32241038 0.75577408 7.6830131 0 0 Z " fill="#ECECEC" transform="translate(100,259)"/>
<path d="M0 0 C2.31 0 4.62 0 7 0 C7.4500651 10.41514277 6.07601828 20.05618775 4.25 30.25 C3.9715963 31.85248988 3.69443045 33.45519527 3.41845703 35.05810547 C2.86981411 38.24158463 2.31695251 41.42428007 1.76074219 44.60644531 C0.74583811 50.43750194 -0.19892937 56.27923862 -1.125 62.125 C-1.28049316 63.10436523 -1.43598633 64.08373047 -1.59619141 65.09277344 C-2.06605872 68.06154765 -2.53303726 71.03076769 -3 74 C-3.17273438 75.09022461 -3.34546875 76.18044922 -3.5234375 77.30371094 C-5.38716941 89.08371206 -7.17906214 100.84596743 -8.50390625 112.69921875 C-9.10224884 117.99575239 -9.7955848 123.27916708 -10.5 128.5625 C-10.61867432 129.4793457 -10.73734863 130.39619141 -10.85961914 131.34082031 C-11.47991313 135.94052584 -12.29377753 140.3558713 -13.48217773 144.83935547 C-15.60896059 153.7134848 -16.61236696 162.91632606 -17.9375 171.9375 C-18.10934814 173.09958984 -18.28119629 174.26167969 -18.45825195 175.45898438 C-19.28639538 181.07575668 -20.1020694 186.69393349 -20.890625 192.31640625 C-21.02605713 193.28006104 -21.16148926 194.24371582 -21.30102539 195.23657227 C-21.55288691 197.03746967 -21.80219955 198.83872595 -22.04858398 200.64038086 C-22.50032092 203.87625247 -22.96428892 206.89286677 -24 210 C-24.32161886 212.66651275 -24.60966115 215.32790171 -24.875 218 C-25.98750522 228.59251578 -27.61680858 239.0900612 -29.45117188 249.58007812 C-31.20798387 259.76112111 -32.49888632 270.00310673 -33.82275391 280.24755859 C-34.13814894 282.68122132 -34.45933362 285.11406749 -34.78125 287.546875 C-34.87402222 288.2772699 -34.96679443 289.00766479 -35.06237793 289.76019287 C-35.7107217 294.62416785 -36.77776786 299.24797882 -38 304 C-38.23571091 305.40974657 -38.44470436 306.82498477 -38.59765625 308.24609375 C-38.71657227 309.2834668 -38.71657227 309.2834668 -38.83789062 310.34179688 C-38.94907227 311.37916992 -38.94907227 311.37916992 -39.0625 312.4375 C-39.86896378 319.86896378 -39.86896378 319.86896378 -41 321 C-41.28745811 322.93620342 -41.51574786 324.88125418 -41.71875 326.828125 C-41.91017578 328.61669922 -41.91017578 328.61669922 -42.10546875 330.44140625 C-42.23566406 331.69824219 -42.36585937 332.95507812 -42.5 334.25 C-42.75839995 336.71375402 -43.01874336 339.17730516 -43.28125 341.640625 C-43.39533203 342.73922852 -43.50941406 343.83783203 -43.62695312 344.96972656 C-43.9615141 347.68737762 -44.42104673 350.32513648 -45 353 C-47.31 353 -49.62 353 -52 353 C-50.62271907 331.18097052 -50.62271907 331.18097052 -48.02734375 322.89453125 C-46.39936621 317.42912408 -46.07460446 311.71368804 -45.5 306.0625 C-45.24021925 303.63014033 -44.97980568 301.19784816 -44.71875 298.765625 C-44.595 297.59708984 -44.47125 296.42855469 -44.34375 295.22460938 C-43.2991172 285.42524149 -42.01599556 275.73628941 -40.10546875 266.06542969 C-39.03992347 260.54665855 -38.37226272 255.02514055 -37.77172852 249.43920898 C-37.11882309 243.55901743 -36.11681883 237.77675094 -35.03515625 231.9621582 C-34.32132422 228.05565778 -33.78124803 224.2104315 -33.5 220.25 C-33.11944818 215.13973269 -32.03669383 210.30653296 -30.81640625 205.3359375 C-30.54699219 204.23507813 -30.27757813 203.13421875 -30 202 C-29.67902344 200.73542969 -29.35804687 199.47085938 -29.02734375 198.16796875 C-27.41826957 190.85999429 -26.8045621 183.36791384 -26 175.9375 C-24.02530135 157.99743994 -24.02530135 157.99743994 -22.97265625 149.30859375 C-22.82320557 148.0652124 -22.67375488 146.82183105 -22.51977539 145.54077148 C-21.84372516 140.93543729 -20.76980134 136.47248195 -19.65625 131.95703125 C-18.88554104 128.48425338 -18.53456059 125.08014126 -18.26342773 121.5390625 C-18.00942165 119.09081113 -17.58374011 116.76827229 -17.06640625 114.36328125 C-15.79421614 108.17287173 -14.97048559 101.94241823 -14.14453125 95.6796875 C-14.02464844 94.803125 -13.90476563 93.9265625 -13.78125 93.0234375 C-13.67876953 92.24919434 -13.57628906 91.47495117 -13.47070312 90.67724609 C-13.08599265 88.48910547 -12.5701401 86.32438005 -12.01806641 84.17236328 C-11.00546604 80.21311556 -10.42086652 76.27916323 -9.9296875 72.21875 C-9.84373322 71.51979614 -9.75777893 70.82084229 -9.66921997 70.10070801 C-9.39978842 67.90101279 -9.13727035 65.70055929 -8.875 63.5 C-8.69186599 61.99473566 -8.50827618 60.4895267 -8.32421875 58.984375 C-7.87755087 55.32354084 -7.43707256 51.66199364 -7 48 C-6.34 48 -5.68 48 -5 48 C-4.96132812 46.44732422 -4.96132812 46.44732422 -4.921875 44.86328125 C-4.39850553 29.75763716 -2.22197056 14.92997456 0 0 Z " fill="#161617" transform="translate(70,4)"/>
<path d="M0 0 C1.98 0 3.96 0 6 0 C7.76415351 5.64529124 8.60351957 11.16735581 9.2109375 17.0390625 C9.57021581 20.24778947 10.06436922 23.21885536 10.9765625 26.3203125 C12.31539653 31.13398295 12.81982798 35.91842417 13.375 40.875 C14.39458134 49.54177528 15.62325882 58.14323103 17.0625 66.75 C18.31489349 74.2626199 19.34405929 81.72457786 20 89.3125 C20.64850529 96.69943799 21.84984042 103.81947443 23.39624023 111.06835938 C25.11578516 119.23084651 26.33984618 127.44861886 27.56542969 135.69750977 C28.44009885 141.5270498 29.40414289 147.29563725 30.625 153.0625 C31.84939081 158.875065 32.59831215 164.64329887 33.2331543 170.54101562 C33.77349127 175.4277329 34.53000911 180.23142853 35.4375 185.0625 C36.95823346 193.1788717 37.97230203 201.33670099 38.90991211 209.53930664 C39.4194945 213.87889439 39.96989164 218.12411947 40.9921875 222.375 C42.4024125 228.33953627 42.92345263 234.41383453 43.5625 240.5 C43.80985558 242.84416979 44.06094373 245.18794983 44.31640625 247.53125 C44.42412354 248.55798828 44.53184082 249.58472656 44.64282227 250.64257812 C44.75431315 252.95204699 44.75431315 252.95204699 46 254 C46.38679442 256.37955159 46.71769731 258.74556965 47.015625 261.13671875 C47.21421176 262.66489498 47.41294884 264.19305169 47.61181641 265.72119141 C47.71568665 266.53082336 47.81955688 267.34045532 47.92657471 268.17462158 C50.06378885 284.77987609 52.60889826 301.27013621 55.45214844 317.76953125 C56.39199746 323.31145737 57.25328788 328.86554319 58.10009766 334.42236328 C58.5059215 337.05252054 58.90918628 339.64786515 59.57421875 342.2265625 C60.34815927 345.45013126 60.0549874 348.70075593 60 352 C57.69 352 55.38 352 53 352 C45.79193603 313.50045832 45.79193603 313.50045832 46 299 C45.34 299 44.68 299 44 299 C43.92483154 298.30140869 43.84966309 297.60281738 43.7722168 296.88305664 C41.90960677 279.52244484 41.90960677 279.52244484 39.12792969 262.29345703 C37.84385639 255.45233023 36.9539333 248.56461447 36.08984375 241.65917969 C35.97640625 240.78036133 35.86296875 239.90154297 35.74609375 238.99609375 C35.64997803 238.22450928 35.5538623 237.4529248 35.45483398 236.65795898 C35.01332402 233.83888498 35.01332402 233.83888498 34.07055664 230.49609375 C32.60429076 224.76491231 31.91280541 218.92187712 31.125 213.06640625 C30.95500488 211.83389633 30.78500977 210.60138641 30.60986328 209.33152771 C30.06909058 205.40907895 29.53387018 201.48589223 29 197.5625 C28.46609251 193.64268504 27.93028751 189.72314471 27.39013672 185.80418396 C27.05488264 183.37161575 26.72299889 180.93857987 26.39501953 178.50502014 C25.62502665 172.91567877 24.75997478 167.41711355 23.43338013 161.9309082 C22.65630313 158.46867202 22.27109665 154.96016284 21.875 151.4375 C21.78863281 150.73431641 21.70226562 150.03113281 21.61328125 149.30664062 C21.05710708 144.50853493 20.92394028 139.82979194 21 135 C20.34 135 19.68 135 19 135 C18.89453857 134.14994385 18.78907715 133.2998877 18.68041992 132.42407227 C16.44926971 113.65328482 16.44926971 113.65328482 13.4375 95 C12.02572109 87.48841546 11.02459567 79.95018485 10.08959961 72.36523438 C9.24031724 65.54200201 8.17161545 58.77494544 7 52 C4.90039534 39.79360929 2.86438605 27.59424473 1.25 15.3125 C1.12246338 14.35110107 0.99492676 13.38970215 0.86352539 12.39916992 C0.33034163 8.22537001 -0.06151336 4.21413104 0 0 Z " fill="#171718" transform="translate(174,8)"/>
<path d="M0 0 C0.33 0 0.66 0 1 0 C1.495 7.92 1.495 7.92 2 16 C2.66 16 3.32 16 4 16 C4 18.97 4 21.94 4 25 C4.99 25.33 5.98 25.66 7 26 C6.505 28.475 6.505 28.475 6 31 C5.67 31 5.34 31 5 31 C5 37.27 5 43.54 5 50 C5.33 48.68 5.66 47.36 6 46 C6.66 46 7.32 46 8 46 C8 49.63 8 53.26 8 57 C7.01 57 6.02 57 5 57 C4.96241577 58.07314453 4.96241577 58.07314453 4.92407227 59.16796875 C4.80720848 62.4454547 4.68489577 65.72271616 4.5625 69 C4.52318359 70.12535156 4.48386719 71.25070312 4.44335938 72.41015625 C4.21827453 78.33161908 3.85527916 84.13522862 3 90 C3.66 90 4.32 90 5 90 C5 87.36 5 84.72 5 82 C5.99 81.67 6.98 81.34 8 81 C8 91.23 8 101.46 8 112 C7.67 112 7.34 112 7 112 C7 105.4 7 98.8 7 92 C6.01 92.33 5.02 92.66 4 93 C3.67 94.65 3.34 96.3 3 98 C2.01 97.67 1.02 97.34 0 97 C-0.04254356 98.99954746 -0.04080783 101.00041636 0 103 C0.33 103.33 0.66 103.66 1 104 C1.18145851 106.57909066 1.27820018 109.10586653 1.3125 111.6875 C1.34150391 112.39583984 1.37050781 113.10417969 1.40039062 113.83398438 C1.4622045 118.98355603 0.4436712 121.94298477 -3 126 C-3.66 126 -4.32 126 -5 126 C-5 126.66 -5 127.32 -5 128 C-18.40814593 132.10303919 -31.44389832 134.45132185 -45 129 C-49.65359833 125.41074719 -52.21145095 121.85139238 -53 116 C-53.50259632 109.90118693 -53.36516895 105.32818417 -50 100 C-49.34 100 -48.68 100 -48 100 C-48 101.65 -48 103.3 -48 105 C-48.66 105 -49.32 105 -50 105 C-49.67 109.62 -49.34 114.24 -49 119 C-48.67 117.02 -48.34 115.04 -48 113 C-47.67 113 -47.34 113 -47 113 C-46.34 116.96 -45.68 120.92 -45 125 C-38.44845511 125.98390305 -32.05668838 126.15063921 -25.4375 126.125 C-24.43525391 126.12886719 -23.43300781 126.13273437 -22.40039062 126.13671875 C-17.1585024 126.12981699 -12.16405859 125.91258258 -7 125 C-6.05711817 120.0399662 -5.69751789 115.15485426 -5.4375 110.125 C-5.37272461 108.949375 -5.37272461 108.949375 -5.30664062 107.75 C-5.20146649 105.83349351 -5.10032075 103.91676667 -5 102 C-5.99 102 -6.98 102 -8 102 C-7.505 106.95 -7.505 106.95 -7 112 C-9.31 112 -11.62 112 -14 112 C-14 112.66 -14 113.32 -14 114 C-20.435 114.495 -20.435 114.495 -27 115 C-27 112.03 -27 109.06 -27 106 C-25.515 105.505 -25.515 105.505 -24 105 C-24 106.98 -24 108.96 -24 111 C-17.07 110.01 -17.07 110.01 -10 109 C-9.67 106.69 -9.34 104.38 -9 102 C-20.55 102 -32.1 102 -44 102 C-44 101.34 -44 100.68 -44 100 C-38.72 100 -33.44 100 -28 100 C-28 97.69 -28 95.38 -28 93 C-26.0625 92.4375 -26.0625 92.4375 -24 92 C-23 93 -23 93 -23 100 C-18.38 100 -13.76 100 -9 100 C-8.67 96.7 -8.34 93.4 -8 90 C-19.55 90 -31.1 90 -43 90 C-43 91.32 -43 92.64 -43 94 C-43.66 94 -44.32 94 -45 94 C-45.73538697 90.70825375 -46.12302023 87.67218108 -46.11352539 84.30151367 C-46.11344986 83.40095749 -46.11337433 82.50040131 -46.11329651 81.57255554 C-46.10813522 80.6140419 -46.10297394 79.65552826 -46.09765625 78.66796875 C-46.0962413 77.67622147 -46.09482635 76.68447418 -46.09336853 75.66267395 C-46.08778418 72.50425157 -46.07523452 69.34590085 -46.0625 66.1875 C-46.05748298 64.04231873 -46.05292042 61.89713635 -46.04882812 59.75195312 C-46.03781988 54.50127776 -46.0210973 49.250644 -46 44 C-44.68 44 -43.36 44 -42 44 C-42 43.34 -42 42.68 -42 42 C-37.46102295 41.97534608 -32.92208457 41.95716211 -28.38305664 41.94506836 C-26.83780234 41.9400286 -25.29255284 41.9331968 -23.74731445 41.92456055 C-21.53074971 41.91247924 -19.31424782 41.90676827 -17.09765625 41.90234375 C-16.4028566 41.89718246 -15.70805695 41.89202118 -14.99220276 41.88670349 C-13.3277067 41.88650723 -11.66334501 41.93810871 -10 42 C-9 43 -9 43 -8.88647461 46.51000977 C-8.88663374 48.07048422 -8.89232858 49.63096393 -8.90234375 51.19140625 C-8.9037587 52.01124496 -8.90517365 52.83108368 -8.90663147 53.67576599 C-8.91224711 56.30471382 -8.92480221 58.93357773 -8.9375 61.5625 C-8.94251299 63.34049357 -8.94707624 65.11848846 -8.95117188 66.89648438 C-8.96222161 71.26435545 -8.97949669 75.63216348 -9 80 C-9.33 80 -9.66 80 -10 80 C-10 68.45 -10 56.9 -10 45 C-19.9 45 -29.8 45 -40 45 C-40 57.87 -40 70.74 -40 84 C-40.66 84 -41.32 84 -42 84 C-42 71.79 -42 59.58 -42 47 C-42.66 47 -43.32 47 -44 47 C-44 60.53 -44 74.06 -44 88 C-31.79 88 -19.58 88 -7 88 C-7 70.84 -7 53.68 -7 36 C-12.61 36 -18.22 36 -24 36 C-27.5592521 35.73227922 -31.03250066 35.44087756 -34.5625 35 C-35.80676758 34.85691406 -35.80676758 34.85691406 -37.07617188 34.7109375 C-39.05179249 34.48254205 -41.02608278 34.24267698 -43 34 C-43 34.66 -43 35.32 -43 36 C-43.66 36 -44.32 36 -45 36 C-45 35.01 -45 34.02 -45 33 C-45.66 33 -46.32 33 -47 33 C-46.67 34.98 -46.34 36.96 -46 39 C-46.66 38.67 -47.32 38.34 -48 38 C-48.59355614 35.35139573 -48.74209269 32.70802678 -49 30 C-46.37472811 29.94617894 -43.75055287 29.90641687 -41.125 29.875 C-40.37863281 29.85824219 -39.63226563 29.84148437 -38.86328125 29.82421875 C-36.90805539 29.8066041 -34.95257979 29.89679811 -33 30 C-32.34 30.66 -31.68 31.32 -31 32 C-28.67724823 32.40047444 -26.34260643 32.7397104 -24 33 C-24 31.68 -24 30.36 -24 29 C-23.34 29 -22.68 29 -22 29 C-22 30.32 -22 31.64 -22 33 C-21.01 32.34 -20.02 31.68 -19 31 C-18.01 31 -17.02 31 -16 31 C-16 31.99 -16 32.98 -16 34 C-13.69 34 -11.38 34 -9 34 C-8.67 32.68 -8.34 31.36 -8 30 C-7.34 30 -6.68 30 -6 30 C-6 29.34 -6 28.68 -6 28 C-5.34 28 -4.68 28 -4 28 C-4 27.34 -4 26.68 -4 26 C-6.31 26 -8.62 26 -11 26 C-11 25.67 -11 25.34 -11 25 C-9.35 24.67 -7.7 24.34 -6 24 C-5.34 21.03 -4.68 18.06 -4 15 C-5.485 14.71125 -6.97 14.4225 -8.5 14.125 C-13.04194437 13.21919913 -17.51734947 12.16216866 -22 11 C-21.67 10.01 -21.34 9.02 -21 8 C-23.64 8 -26.28 8 -29 8 C-29 7.01 -29 6.02 -29 5 C-23.04604982 4.3732684 -18.28882316 6.51993038 -13 9 C-12.505 9.495 -12.505 9.495 -12 10 C-10.33382885 10.04063832 -8.66611905 10.042721 -7 10 C-7 9.34 -7 8.68 -7 8 C-2.25 9.875 -2.25 9.875 0 11 C0 7.37 0 3.74 0 0 Z " fill="#C0C0C0" transform="translate(150,228)"/>
<path d="M0 0 C0.66 3.96 1.32 7.92 2 12 C2.66 11.34 3.32 10.68 4 10 C4.66 10.99 5.32 11.98 6 13 C6.495 13.495 6.495 13.495 7 14 C8.15699833 22.95602414 8.12161444 31.98701873 8 41 C7.360625 40.731875 6.72125 40.46375 6.0625 40.1875 C4.5465625 39.5996875 4.5465625 39.5996875 3 39 C2.35023193 38.74009277 1.70046387 38.48018555 1.03100586 38.21240234 C-4.88081372 36.01630134 -10.16226658 35.54237074 -16.4375 35.625 C-17.31470703 35.61339844 -18.19191406 35.60179687 -19.09570312 35.58984375 C-26.97921352 35.62470083 -34.01008367 37.32822693 -41 41 C-41.10280768 33.0495397 -41.05311353 25.12805156 -40.625 17.1875 C-40.59414307 16.50042969 -40.56328613 15.81335938 -40.53149414 15.10546875 C-40.23637921 10.23637921 -40.23637921 10.23637921 -38 8 C-37.67 8.99 -37.34 9.98 -37 11 C-34.70176341 8.70176341 -34.70309616 8.05119118 -34.4375 4.9375 C-34 1 -34 1 -33 0 C-22.44377877 -1.54620962 -10.45420698 -2.0908414 0 0 Z " fill="#F8F8F8" transform="translate(141,197)"/>
<path d="M0 0 C0.33 0 0.66 0 1 0 C1.495 7.92 1.495 7.92 2 16 C2.66 16 3.32 16 4 16 C4 18.97 4 21.94 4 25 C4.99 25.33 5.98 25.66 7 26 C6.505 28.475 6.505 28.475 6 31 C5.67 31 5.34 31 5 31 C5 37.27 5 43.54 5 50 C5.33 48.68 5.66 47.36 6 46 C6.66 46 7.32 46 8 46 C8 49.63 8 53.26 8 57 C7.01 57 6.02 57 5 57 C4.96241577 58.07314453 4.96241577 58.07314453 4.92407227 59.16796875 C4.80720848 62.4454547 4.68489577 65.72271616 4.5625 69 C4.52318359 70.12535156 4.48386719 71.25070312 4.44335938 72.41015625 C4.21827453 78.33161908 3.85527916 84.13522862 3 90 C3.66 90 4.32 90 5 90 C5 87.36 5 84.72 5 82 C5.99 81.67 6.98 81.34 8 81 C8 91.23 8 101.46 8 112 C7.67 112 7.34 112 7 112 C7 105.4 7 98.8 7 92 C6.01 92.33 5.02 92.66 4 93 C3.67 94.65 3.34 96.3 3 98 C2.01 97.67 1.02 97.34 0 97 C-0.04254356 98.99954746 -0.04080783 101.00041636 0 103 C0.33 103.33 0.66 103.66 1 104 C1.18145851 106.57909066 1.27820018 109.10586653 1.3125 111.6875 C1.34150391 112.39583984 1.37050781 113.10417969 1.40039062 113.83398438 C1.4622045 118.98355603 0.4436712 121.94298477 -3 126 C-3.66 126 -4.32 126 -5 126 C-5 126.66 -5 127.32 -5 128 C-18.40814593 132.10303919 -31.44389832 134.45132185 -45 129 C-49.65359833 125.41074719 -52.21145095 121.85139238 -53 116 C-53.50259632 109.90118693 -53.36516895 105.32818417 -50 100 C-49.34 100 -48.68 100 -48 100 C-48 101.65 -48 103.3 -48 105 C-48.66 105 -49.32 105 -50 105 C-49.67 109.62 -49.34 114.24 -49 119 C-48.67 117.02 -48.34 115.04 -48 113 C-47.67 113 -47.34 113 -47 113 C-46.34 116.96 -45.68 120.92 -45 125 C-38.50050797 125.95830798 -32.12836018 126.21578053 -25.5625 126.25 C-24.57701172 126.270625 -23.59152344 126.29125 -22.57617188 126.3125 C-15.40121927 126.35053818 -9.43500263 125.21750131 -3 122 C-2.52381188 119.12817413 -2.15832403 116.32879853 -1.875 113.4375 C-1.78863281 112.63119141 -1.70226562 111.82488281 -1.61328125 110.99414062 C-1.40056372 108.99695936 -1.19922145 106.99857263 -1 105 C-1.99 105 -2.98 105 -4 105 C-4 95.76 -4 86.52 -4 77 C-3.67 77 -3.34 77 -3 77 C-2.8453125 78.6396875 -2.8453125 78.6396875 -2.6875 80.3125 C-2.02692273 83.85559629 -1.7972908 84.93243723 1 87 C1.495 85.515 1.495 85.515 2 84 C1.34 84 0.68 84 0 84 C0 76.41 0 68.82 0 61 C0.99 60.67 1.98 60.34 3 60 C3 58.35 3 56.7 3 55 C2.01 55 1.02 55 0 55 C-0.66 57.31 -1.32 59.62 -2 62 C-2.33 62 -2.66 62 -3 62 C-3.33 54.74 -3.66 47.48 -4 40 C-4.66 41.32 -5.32 42.64 -6 44 C-6 40.37 -6 36.74 -6 33 C-6.99 33.66 -7.98 34.32 -9 35 C-8.67 33.35 -8.34 31.7 -8 30 C-7.34 30 -6.68 30 -6 30 C-6 29.34 -6 28.68 -6 28 C-5.34 28 -4.68 28 -4 28 C-4 27.34 -4 26.68 -4 26 C-6.31 26 -8.62 26 -11 26 C-11 25.67 -11 25.34 -11 25 C-9.35 24.67 -7.7 24.34 -6 24 C-5.34 21.03 -4.68 18.06 -4 15 C-5.485 14.71125 -6.97 14.4225 -8.5 14.125 C-13.04194437 13.21919913 -17.51734947 12.16216866 -22 11 C-21.67 10.01 -21.34 9.02 -21 8 C-23.64 8 -26.28 8 -29 8 C-29 7.01 -29 6.02 -29 5 C-23.04604982 4.3732684 -18.28882316 6.51993038 -13 9 C-12.505 9.495 -12.505 9.495 -12 10 C-10.33382885 10.04063832 -8.66611905 10.042721 -7 10 C-7 9.34 -7 8.68 -7 8 C-2.25 9.875 -2.25 9.875 0 11 C0 7.37 0 3.74 0 0 Z " fill="#C4C4C2" transform="translate(150,228)"/>
<path d="M0 0 C2.475 0.495 2.475 0.495 5 1 C5 1.99 5 2.98 5 4 C5.763125 4.103125 6.52625 4.20625 7.3125 4.3125 C10.26614559 5.06808376 10.9217678 5.9217678 13 8 C14.32 8 15.64 8 17 8 C18.19040572 10.38081144 18.14948941 11.89612713 18.18945312 14.55395508 C18.20617065 15.49866165 18.22288818 16.44336823 18.2401123 17.41670227 C18.25368774 18.44063583 18.26726318 19.4645694 18.28125 20.51953125 C18.30886414 22.09561409 18.30886414 22.09561409 18.33703613 23.70353699 C18.39591145 27.07313322 18.44864916 30.4427812 18.5 33.8125 C18.5677243 38.23578263 18.6414647 42.65890657 18.71875 47.08203125 C18.73232544 48.09989212 18.74590088 49.11775299 18.7598877 50.16645813 C18.77660522 51.12062119 18.79332275 52.07478424 18.81054688 53.05786133 C18.82307495 53.8934407 18.83560303 54.72902008 18.84851074 55.58992004 C19.00835623 58.13294132 19.44645005 60.51537534 20 63 C19.34 63 18.68 63 18 63 C18.01110306 63.99034744 18.02220612 64.98069489 18.03364563 66.00105286 C18.1353665 75.3717074 18.21012994 84.74224872 18.25906086 94.11333179 C18.28506334 98.93020093 18.32028878 103.74662142 18.37719727 108.56323242 C18.43185287 113.2187352 18.46149071 117.87380871 18.47438622 122.52960777 C18.48356628 124.29850705 18.50149188 126.06738502 18.52865028 127.83609962 C18.80753272 146.76555929 18.80753272 146.76555929 13 155 C9.63833285 157.35316701 8.05751403 158 4 158 C4 157.34 4 156.68 4 156 C4.66 156 5.32 156 6 156 C6.309375 155.38125 6.61875 154.7625 6.9375 154.125 C7.625 152.75 8.3125 151.375 9 150 C9.09791023 147.30170926 9.1390625 144.63515539 9.125 141.9375 C9.12886719 141.19177734 9.13273438 140.44605469 9.13671875 139.67773438 C9.47211152 136.04082676 9.47211152 136.04082676 8 133 C7.95907063 130.66702567 7.95758277 128.33294775 8 126 C9.32 126.66 10.64 127.32 12 128 C12 126.35 12 124.7 12 123 C13.98 122.505 13.98 122.505 16 122 C16.33 118.37 16.66 114.74 17 111 C16.01 111.495 16.01 111.495 15 112 C14.53476937 113.89533342 14.53476937 113.89533342 14.375 116.0625 C14.25125 117.361875 14.1275 118.66125 14 120 C13.34 120 12.68 120 12 120 C12.11814126 115.62155592 12.24238169 111.24334071 12.37231445 106.86523438 C12.41566589 105.37537359 12.45734084 103.88546305 12.49731445 102.39550781 C12.55501215 100.25570673 12.61870755 98.11615615 12.68359375 95.9765625 C12.72025146 94.68830566 12.75690918 93.40004883 12.79467773 92.07275391 C13 89 13 89 14 87 C14.99 87 15.98 87 17 87 C17 83.37 17 79.74 17 76 C16.34 76 15.68 76 15 76 C14.67 77.65 14.34 79.3 14 81 C13.67 81 13.34 81 13 81 C12.94183377 77.58340509 12.90634805 74.16693795 12.875 70.75 C12.85824219 69.78191406 12.84148437 68.81382812 12.82421875 67.81640625 C12.81777344 66.88183594 12.81132812 65.94726562 12.8046875 64.984375 C12.79421387 64.12553711 12.78374023 63.26669922 12.77294922 62.38183594 C13.01706677 59.82096404 13.71009488 58.20488971 15 56 C14.34 55.67 13.68 55.34 13 55 C13 52.03 13 49.06 13 46 C12.34 46 11.68 46 11 46 C10.71125 45.195625 10.4225 44.39125 10.125 43.5625 C9.26737432 40.8673532 9.26737432 40.8673532 7 40 C7.01160156 39.14019531 7.02320313 38.28039062 7.03515625 37.39453125 C7.09765271 29.2074948 6.75826597 21.15135917 6 13 C5.01 14.485 5.01 14.485 4 16 C3.67 14.35 3.34 12.7 3 11 C2.01 11.495 2.01 11.495 1 12 C-0.3271261 8.0186217 -0.06915913 4.14954773 0 0 Z " fill="#DEDEDD" transform="translate(141,198)"/>
<path d="M0 0 C9.57 0 19.14 0 29 0 C29 0.99 29 1.98 29 3 C28.34 3 27.68 3 27 3 C27.33 14.88 27.66 26.76 28 39 C22.06 39 16.12 39 10 39 C10 38.34 10 37.68 10 37 C7.36 37 4.72 37 2 37 C1.97494385 35.98574951 1.9498877 34.97149902 1.92407227 33.92651367 C1.82990355 30.16368973 1.72970595 26.40104631 1.62768555 22.63842773 C1.58437251 21.00988996 1.54269482 19.38130784 1.50268555 17.75268555 C1.44489497 15.41181065 1.38122602 13.07115824 1.31640625 10.73046875 C1.29969376 10.00224411 1.28298126 9.27401947 1.26576233 8.52372742 C1.17532762 5.43833061 0.98276007 2.94828022 0 0 Z " fill="#FBFBFA" transform="translate(110,273)"/>
<path d="M0 0 C0.25 6.625 0.25 6.625 -2 10 C-1.34 10.33 -0.68 10.66 0 11 C0 11.66 0 12.32 0 13 C-0.66 13 -1.32 13 -2 13 C-2 13.66 -2 14.32 -2 15 C-2.99 15.495 -2.99 15.495 -4 16 C-4.495 17.485 -4.495 17.485 -5 19 C-7.31 19 -9.62 19 -12 19 C-12 18.01 -12 17.02 -12 16 C-13.98 16.66 -15.96 17.32 -18 18 C-18 16.68 -18 15.36 -18 14 C-18.66 14 -19.32 14 -20 14 C-20 15.32 -20 16.64 -20 18 C-23.375 18.125 -23.375 18.125 -27 18 C-27.66 17.34 -28.32 16.68 -29 16 C-31.58064129 15.85502015 -34.04943884 15.81322455 -36.625 15.875 C-37.33140625 15.88402344 -38.0378125 15.89304687 -38.765625 15.90234375 C-40.51056098 15.92592397 -42.25532295 15.96179539 -44 16 C-44.22429397 14.12684224 -44.42869636 12.25129759 -44.625 10.375 C-44.74101563 9.33085937 -44.85703125 8.28671875 -44.9765625 7.2109375 C-45.00202459 3.72263151 -44.26972154 1.22761277 -43 -2 C-10.9997063 -4.64309211 -10.9997063 -4.64309211 0 0 Z " fill="#F7F7F7" transform="translate(146,243)"/>
<path d="M0 0 C0.99 0 1.98 0 3 0 C3.05429278 2.70860665 3.09381211 5.41610901 3.125 8.125 C3.14175781 8.88554687 3.15851563 9.64609375 3.17578125 10.4296875 C3.21459896 14.93254227 3.23891579 18.97484538 1 23 C-4.81873684 25.71801399 -11.11763463 25.29877067 -17.4375 25.25 C-18.93506836 25.26160156 -18.93506836 25.26160156 -20.46289062 25.2734375 C-26.30326857 25.25807819 -31.43944873 24.84701352 -37 23 C-38.44207941 20.11584117 -38.09394887 17.58278472 -38.0625 14.375 C-38.05347656 13.18648438 -38.04445313 11.99796875 -38.03515625 10.7734375 C-38.02355469 9.85820312 -38.01195313 8.94296875 -38 8 C-36.68 8 -35.36 8 -34 8 C-34.33 5.69 -34.66 3.38 -35 1 C-29.72 1 -24.44 1 -19 1 C-19 4.96 -19 8.92 -19 13 C-17.68 12.67 -16.36 12.34 -15 12 C-13.41788427 11.93451508 -11.83329919 11.91421619 -10.25 11.9375 C-9.45078125 11.94652344 -8.6515625 11.95554687 -7.828125 11.96484375 C-7.22484375 11.97644531 -6.6215625 11.98804688 -6 12 C-6 11.34 -6 10.68 -6 10 C-3.69 10 -1.38 10 1 10 C0.505 8.515 0.505 8.515 0 7 C-0.03954234 4.66700175 -0.04401732 2.33291811 0 0 Z " fill="#F6F6F6" transform="translate(142,330)"/>
<path d="M0 0 C0.33 0 0.66 0 1 0 C1.495 10.395 1.495 10.395 2 21 C2.33 17.04 2.66 13.08 3 9 C3.33 9 3.66 9 4 9 C4 11.31 4 13.62 4 16 C4.99 16 5.98 16 7 16 C7 17.65 7 19.3 7 21 C6.01 21.495 6.01 21.495 5 22 C4.67 29.59 4.34 37.18 4 45 C4.66 45 5.32 45 6 45 C5.67 46.32 5.34 47.64 5 49 C3.68 47.68 2.36 46.36 1 45 C0.67 51.93 0.34 58.86 0 66 C0.99 66 1.98 66 3 66 C3.39520958 79.56886228 3.39520958 79.56886228 1 84 C-1.125 84.875 -1.125 84.875 -3 85 C-2.84660156 84.35675781 -2.69320312 83.71351563 -2.53515625 83.05078125 C-1.84253326 79.10232463 -1.64199119 75.1868113 -1.4375 71.1875 C-1.39431641 70.39923828 -1.35113281 69.61097656 -1.30664062 68.79882812 C-1.20121679 66.86605785 -1.10016906 64.93304974 -1 63 C-1.99 63 -2.98 63 -4 63 C-3.505 67.95 -3.505 67.95 -3 73 C-5.31 73 -7.62 73 -10 73 C-10 73.66 -10 74.32 -10 75 C-16.435 75.495 -16.435 75.495 -23 76 C-23 73.03 -23 70.06 -23 67 C-21.515 66.505 -21.515 66.505 -20 66 C-20 67.98 -20 69.96 -20 72 C-13.07 71.01 -13.07 71.01 -6 70 C-5.67 67.69 -5.34 65.38 -5 63 C-16.55 63 -28.1 63 -40 63 C-40 62.34 -40 61.68 -40 61 C-34.72 61 -29.44 61 -24 61 C-24 58.69 -24 56.38 -24 54 C-22.0625 53.4375 -22.0625 53.4375 -20 53 C-19 54 -19 54 -19 61 C-14.38 61 -9.76 61 -5 61 C-4.505 56.05 -4.505 56.05 -4 51 C-3.34 51 -2.68 51 -2 51 C-1.98969254 50.3758168 -1.97938507 49.75163361 -1.96876526 49.10853577 C-1.86093467 42.63645448 -1.74631853 36.16451907 -1.62768555 29.69262695 C-1.58426122 27.27436361 -1.54259188 24.8560681 -1.50268555 22.43774414 C-1.44516397 18.97011604 -1.38141813 15.50265097 -1.31640625 12.03515625 C-1.29969376 10.94662857 -1.28298126 9.85810089 -1.26576233 8.73658752 C-1.24581711 7.73562546 -1.22587189 6.73466339 -1.20532227 5.70336914 C-1.18977798 4.81734512 -1.1742337 3.93132111 -1.15821838 3.01844788 C-1 1 -1 1 0 0 Z " fill="#DCDCDC" transform="translate(146,267)"/>
<path d="M0 0 C1.32 0 2.64 0 4 0 C4.11627202 10.37098929 4.20490623 20.74182142 4.25906086 31.11333179 C4.28506334 35.93020093 4.32028878 40.74662142 4.37719727 45.56323242 C4.43185287 50.2187352 4.46149071 54.87380871 4.47438622 59.52960777 C4.48356628 61.29850705 4.50149188 63.06738502 4.52865028 64.83609962 C4.80753272 83.76555929 4.80753272 83.76555929 -1 92 C-4.36166715 94.35316701 -5.94248597 95 -10 95 C-10 94.34 -10 93.68 -10 93 C-9.34 93 -8.68 93 -8 93 C-7.690625 92.38125 -7.38125 91.7625 -7.0625 91.125 C-6.375 89.75 -5.6875 88.375 -5 87 C-4.90208977 84.30170926 -4.8609375 81.63515539 -4.875 78.9375 C-4.87113281 78.19177734 -4.86726562 77.44605469 -4.86328125 76.67773438 C-4.52788848 73.04082676 -4.52788848 73.04082676 -6 70 C-6.04092937 67.66702567 -6.04241723 65.33294775 -6 63 C-4.68 63.66 -3.36 64.32 -2 65 C-2 63.35 -2 61.7 -2 60 C-0.02 59.505 -0.02 59.505 2 59 C2.33 55.37 2.66 51.74 3 48 C2.01 48.495 2.01 48.495 1 49 C0.53476937 50.89533342 0.53476937 50.89533342 0.375 53.0625 C0.25125 54.361875 0.1275 55.66125 0 57 C-0.66 57 -1.32 57 -2 57 C-1.88185874 52.62155592 -1.75761831 48.24334071 -1.62768555 43.86523438 C-1.58433411 42.37537359 -1.54265916 40.88546305 -1.50268555 39.39550781 C-1.44498785 37.25570673 -1.38129245 35.11615615 -1.31640625 32.9765625 C-1.27974854 31.68830566 -1.24309082 30.40004883 -1.20532227 29.07275391 C-1 26 -1 26 0 24 C0.99 24 1.98 24 3 24 C3 20.37 3 16.74 3 13 C2.34 13 1.68 13 1 13 C0.67 14.65 0.34 16.3 0 18 C-0.33 18 -0.66 18 -1 18 C-1.09945415 11.88909517 -1.0712828 6.02596573 0 0 Z " fill="#EAEAE9" transform="translate(155,261)"/>
<path d="M0 0 C2.64 0 5.28 0 8 0 C8 16.83 8 33.66 8 51 C5.36 51 2.72 51 0 51 C0 34.17 0 17.34 0 0 Z " fill="#28282A" transform="translate(122,110)"/>
<path d="M0 0 C2.31 0 4.62 0 7 0 C8.6140925 1.6140925 8.12734318 3.36476408 8.12939453 5.59570312 C8.13254669 6.57341675 8.13569885 7.55113037 8.13894653 8.55847168 C8.1369223 9.62198853 8.13489807 10.68550537 8.1328125 11.78125 C8.13376923 12.86506958 8.13472595 13.94888916 8.13571167 15.06555176 C8.13639365 17.3622239 8.13453811 19.65889795 8.13037109 21.95556641 C8.12502312 25.48474428 8.1303155 29.01379487 8.13671875 32.54296875 C8.13605797 34.76822945 8.13477682 36.99349007 8.1328125 39.21875 C8.13483673 40.28226685 8.13686096 41.34578369 8.13894653 42.44152832 C8.13579437 43.41924194 8.13264221 44.39695557 8.12939453 45.40429688 C8.12820114 46.70216125 8.12820114 46.70216125 8.12698364 48.02624512 C8 50 8 50 7 51 C4.69 51 2.38 51 0 51 C0 34.17 0 17.34 0 0 Z " fill="#030305" transform="translate(122,18)"/>
<path d="M0 0 C0.66 0 1.32 0 2 0 C3.22692377 6.93882099 3.3375945 13.9064378 3.5625 20.9375 C3.60568359 22.19369141 3.64886719 23.44988281 3.69335938 24.74414062 C3.79893619 27.82932968 3.90104551 30.91459263 4 34 C4.33 34 4.66 34 5 34 C5.00410889 34.92337158 5.00821777 35.84674316 5.01245117 36.7980957 C5.03942998 40.22613076 5.08850542 43.65236962 5.15258789 47.07983398 C5.17577689 48.56279477 5.19016581 50.04592045 5.19555664 51.52905273 C5.20484113 53.66234178 5.24580821 55.79303474 5.29296875 57.92578125 C5.31653442 59.85031128 5.31653442 59.85031128 5.34057617 61.8137207 C5.67705254 65.19333371 5.67705254 65.19333371 8.54418945 66.94213867 C9.75981567 67.46578003 9.75981567 67.46578003 11 68 C9.02 68.495 9.02 68.495 7 69 C6.896875 70.0725 6.79375 71.145 6.6875 72.25 C6.02599507 75.85820872 5.42516579 77.36395023 3 80 C1.81318274 76.43954823 1.90310168 73.56191663 1.9375 69.8125 C1.94652344 68.54019531 1.95554687 67.26789063 1.96484375 65.95703125 C1.97644531 64.98121094 1.98804687 64.00539063 2 63 C2.66 63 3.32 63 4 63 C4 61.35 4 59.7 4 58 C3.34 58 2.68 58 2 58 C1.67 58.66 1.34 59.32 1 60 C1 59.01 1 58.02 1 57 C0.01 57 -0.98 57 -2 57 C-2.33 54.69 -2.66 52.38 -3 50 C-3.99 50 -4.98 50 -6 50 C-6 56.93 -6 63.86 -6 71 C-6.66 71 -7.32 71 -8 71 C-8 60.44 -8 49.88 -8 39 C-6.68 39.33 -5.36 39.66 -4 40 C-4 42.64 -4 45.28 -4 48 C-3.34 48 -2.68 48 -2 48 C-2.33 45.03 -2.66 42.06 -3 39 C-2.67 39.99 -2.34 40.98 -2 42 C-1.34 42 -0.68 42 0 42 C0 34.08 0 26.16 0 18 C-0.66 18 -1.32 18 -2 18 C-2 16.35 -2 14.7 -2 13 C-1.34 13 -0.68 13 0 13 C0 8.71 0 4.42 0 0 Z " fill="#D3D3D3" transform="translate(98,270)"/>
<path d="M0 0 C2.64 0 5.28 0 8 0 C5.35261084 1.4606285 4.10551666 2 1 2 C1 4.64 1 7.28 1 10 C20.8 10.495 20.8 10.495 41 11 C41.66 12.32 42.32 13.64 43 15 C42.34 15 41.68 15 41 15 C41 15.66 41 16.32 41 17 C40.01 17.495 40.01 17.495 39 18 C38.505 19.485 38.505 19.485 38 21 C35.69 21 33.38 21 31 21 C31 20.01 31 19.02 31 18 C29.02 18.66 27.04 19.32 25 20 C25 18.68 25 17.36 25 16 C24.34 16 23.68 16 23 16 C23 17.32 23 18.64 23 20 C19.625 20.125 19.625 20.125 16 20 C15.34 19.34 14.68 18.68 14 18 C11.41935871 17.85502015 8.95056116 17.81322455 6.375 17.875 C5.66859375 17.88402344 4.9621875 17.89304687 4.234375 17.90234375 C2.48943902 17.92592397 0.74467705 17.96179539 -1 18 C-2.51708428 5.33029613 -2.51708428 5.33029613 0 0 Z " fill="#E2E2E0" transform="translate(103,241)"/>
<path d="M0 0 C3.40366961 3.46444943 4.50973655 5.94563552 4.546875 10.83398438 C4.53140625 11.52814453 4.5159375 12.22230469 4.5 12.9375 C4.51546875 13.62779297 4.5309375 14.31808594 4.546875 15.02929688 C4.50830142 20.11618757 3.25049739 23.12487345 0 27 C-0.66 27 -1.32 27 -2 27 C-2 27.66 -2 28.32 -2 29 C-15.40814593 33.10303919 -28.44389832 35.45132185 -42 30 C-46.65359833 26.41074719 -49.21145095 22.85139238 -50 17 C-50.50259632 10.90118693 -50.36516895 6.32818417 -47 1 C-46.34 1 -45.68 1 -45 1 C-45 2.65 -45 4.3 -45 6 C-45.66 6 -46.32 6 -47 6 C-46.67 10.62 -46.34 15.24 -46 20 C-45.67 18.02 -45.34 16.04 -45 14 C-44.67 14 -44.34 14 -44 14 C-43.34 17.96 -42.68 21.92 -42 26 C-35.50050797 26.95830798 -29.12836018 27.21578053 -22.5625 27.25 C-21.57701172 27.270625 -20.59152344 27.29125 -19.57617188 27.3125 C-12.40121927 27.35053818 -6.43500263 26.21750131 0 23 C0.47618812 20.12817413 0.84167597 17.32879853 1.125 14.4375 C1.21136719 13.63119141 1.29773438 12.82488281 1.38671875 11.99414062 C1.59943628 9.99695936 1.80077855 7.99857263 2 6 C1.01 6 0.02 6 -1 6 C-1.042721 4.33388095 -1.04063832 2.66617115 -1 1 C-0.67 0.67 -0.34 0.34 0 0 Z " fill="#A1A2A1" transform="translate(147,327)"/>
<path d="M0 0 C0.33 0 0.66 0 1 0 C1.12117188 0.71285156 1.24234375 1.42570313 1.3671875 2.16015625 C2.31098209 7.5543053 3.45337163 12.74146354 5 18 C6.25281124 23.6833231 6.12697137 29.29836012 6.09765625 35.0859375 C6.0962413 36.14285797 6.09482635 37.19977844 6.09336853 38.28872681 C6.0877894 41.65084716 6.07524069 45.01289991 6.0625 48.375 C6.05748231 50.66015529 6.05291987 52.94531162 6.04882812 55.23046875 C6.03782679 60.8203354 6.02110944 66.41016287 6 72 C5.67 72 5.34 72 5 72 C4.67 55.83 4.34 39.66 4 23 C3.34 23 2.68 23 2 23 C2 27.29 2 31.58 2 36 C1.34 36 0.68 36 0 36 C0 37.65 0 39.3 0 41 C0.66 41 1.32 41 2 41 C2 48.92 2 56.84 2 65 C1.34 65 0.68 65 0 65 C-1.0394775 61.8815675 -1.11494838 59.72524414 -1.09765625 56.45703125 C-1.09443359 55.38388672 -1.09121094 54.31074219 -1.08789062 53.20507812 C-1.07951172 52.08552734 -1.07113281 50.96597656 -1.0625 49.8125 C-1.05798828 48.68134766 -1.05347656 47.55019531 -1.04882812 46.38476562 C-1.03703498 43.58979073 -1.0205765 40.7949218 -1 38 C-2.32 38 -3.64 38 -5 38 C-5 34.04 -5 30.08 -5 26 C-4.34 26.33 -3.68 26.66 -3 27 C-2.67 28.65 -2.34 30.3 -2 32 C-1.67 25.4 -1.34 18.8 -1 12 C-2.98 12.33 -4.96 12.66 -7 13 C-7 12.01 -7 11.02 -7 10 C-6.01 10 -5.02 10 -4 10 C-2.26337666 6.77484237 -1.1094072 3.48670834 0 0 Z " fill="#B6B6B5" transform="translate(96,247)"/>
<path d="M0 0 C0.33 0.99 0.66 1.98 1 3 C0.34 3 -0.32 3 -1 3 C-1 3.99 -1 4.98 -1 6 C0.98 5.67 2.96 5.34 5 5 C5.05819424 8.24992446 5.09366116 11.49971435 5.125 14.75 C5.14175781 15.67039062 5.15851563 16.59078125 5.17578125 17.5390625 C5.18222656 18.42851562 5.18867187 19.31796875 5.1953125 20.234375 C5.20578613 21.05131836 5.21625977 21.86826172 5.22705078 22.70996094 C5 25 5 25 3 29 C2.67 26.03 2.34 23.06 2 20 C1.67 23.63 1.34 27.26 1 31 C2.32 31 3.64 31 5 31 C5.33 41.89 5.66 52.78 6 64 C5.34 64 4.68 64 4 64 C3.67 61.36 3.34 58.72 3 56 C2.01 55.67 1.02 55.34 0 55 C0 64.9 0 74.8 0 85 C-0.33 85 -0.66 85 -1 85 C-1.19657455 58.98865117 -0.62444912 33.00265921 0 7 C-0.99 6.67 -1.98 6.34 -3 6 C-3 4.68 -3 3.36 -3 2 C-2.01 2 -1.02 2 0 2 C0 1.34 0 0.68 0 0 Z " fill="#E4E4E5" transform="translate(90,254)"/>
<path d="M0 0 C0.33 0 0.66 0 1 0 C1.1674126 5.51740298 1.32799286 11.03494587 1.48217773 16.55273438 C1.53562556 18.43071883 1.59095705 20.30865063 1.64819336 22.18652344 C1.7300268 24.88204596 1.80513683 27.57768375 1.87890625 30.2734375 C1.90594131 31.11619232 1.93297638 31.95894714 1.96083069 32.82723999 C2.11387171 38.77225659 2.11387171 38.77225659 1 41 C-8.9 41 -18.8 41 -29 41 C-30.59142848 37.81714304 -30.00008284 34.4129558 -29.87890625 30.9296875 C-29.85529526 30.13345978 -29.83168427 29.33723206 -29.80735779 28.51687622 C-29.73067789 25.96940471 -29.64667239 23.4222339 -29.5625 20.875 C-29.50928363 19.14975438 -29.4565432 17.42449402 -29.40429688 15.69921875 C-29.27505693 11.46595478 -29.13924581 7.23294618 -29 3 C-28.34 2.67 -27.68 2.34 -27 2 C-27 13.55 -27 25.1 -27 37 C-24.36 37 -21.72 37 -19 37 C-19 37.66 -19 38.32 -19 39 C-13.06 39 -7.12 39 -1 39 C-1.33 38.34 -1.66 37.68 -2 37 C-2.08658569 34.44637396 -2.11562516 31.9204558 -2.09765625 29.3671875 C-2.0962413 28.61535187 -2.09482635 27.86351624 -2.09336853 27.08889771 C-2.08776465 24.6842249 -2.07521157 22.27964473 -2.0625 19.875 C-2.0574855 18.24609509 -2.0529225 16.61718873 -2.04882812 14.98828125 C-2.03779397 10.99215173 -2.02052679 6.99609158 -2 3 C-1.34 3 -0.68 3 0 3 C0 2.01 0 1.02 0 0 Z " fill="#E0E0DF" transform="translate(139,273)"/>
<path d="M0 0 C2.50301976 -0.04007177 5.00549646 -0.06435463 7.50878906 -0.07910156 C8.67873413 -0.08635254 8.67873413 -0.08635254 9.87231445 -0.09375 C14.85464711 -0.07886943 19.63868769 0.33883612 24.57128906 1.04589844 C24.57128906 1.70589844 24.57128906 2.36589844 24.57128906 3.04589844 C25.31378906 3.12839844 26.05628906 3.21089844 26.82128906 3.29589844 C30.21405616 4.22119855 31.5025641 5.21097905 33.57128906 8.04589844 C33.82128906 11.29589844 33.82128906 11.29589844 33.57128906 14.04589844 C32.82878906 13.40652344 32.08628906 12.76714844 31.32128906 12.10839844 C28.81786695 9.95292645 28.81786695 9.95292645 26.32128906 9.48339844 C25.74378906 9.33902344 25.16628906 9.19464844 24.57128906 9.04589844 C24.07628906 7.56089844 24.07628906 7.56089844 23.57128906 6.04589844 C11.15242202 1.90627609 -4.72553178 3.3372388 -17.42871094 6.04589844 C-21.14223844 7.82449238 -21.14223844 7.82449238 -23.42871094 11.04589844 C-24.08871094 11.04589844 -24.74871094 11.04589844 -25.42871094 11.04589844 C-25.75871094 12.36589844 -26.08871094 13.68589844 -26.42871094 15.04589844 C-27.08871094 15.04589844 -27.74871094 15.04589844 -28.42871094 15.04589844 C-28.20809195 11.18506619 -27.54298287 10.15001287 -24.61621094 7.48339844 C-24.11476563 7.11085937 -23.61332031 6.73832031 -23.09667969 6.35449219 C-21.29521121 5.03092157 -21.29521121 5.03092157 -19.63964844 2.94042969 C-16.67049325 0.39618893 -14.74623468 0.44922539 -10.86621094 0.29589844 C-9.90122681 0.25360107 -9.90122681 0.25360107 -8.91674805 0.21044922 C-5.94516815 0.09695749 -2.97310705 0.05618658 0 0 Z " fill="#B5B5B5" transform="translate(121.4287109375,192.9541015625)"/>
<path d="M0 0 C0.99 0 1.98 0 3 0 C3.33 2.31 3.66 4.62 4 7 C4.99 7 5.98 7 7 7 C6.835 7.94875 6.67 8.8975 6.5 9.875 C5.55888209 16.59921924 4.95485292 23.76469883 8 30 C9.62746694 31.70496537 11.28891311 33.37897032 13 35 C13 35.66 13 36.32 13 37 C8.79160124 36.38111783 5.4793876 35.49608241 2 33 C-1.45744774 25.84202359 -1.24393815 18.61589174 -0.6875 10.875 C-0.62626953 9.823125 -0.56503906 8.77125 -0.50195312 7.6875 C-0.3504489 5.12358236 -0.1828968 2.56183643 0 0 Z " fill="#F3F6F6" transform="translate(92,320)"/>
<path d="M0 0 C1.50336914 -0.00580078 1.50336914 -0.00580078 3.03710938 -0.01171875 C8.2789976 -0.00481699 13.27344141 0.21241742 18.4375 1.125 C18.4375 2.775 18.4375 4.425 18.4375 6.125 C6.8875 5.795 -4.6625 5.465 -16.5625 5.125 C-16.5625 5.785 -16.5625 6.445 -16.5625 7.125 C-17.5525 7.125 -18.5425 7.125 -19.5625 7.125 C-19.5625 5.145 -19.5625 3.165 -19.5625 1.125 C-13.01095511 0.14109695 -6.61918838 -0.02563921 0 0 Z " fill="#F8F8F7" transform="translate(124.5625,264.875)"/>
<path d="M0 0 C1.39001221 -0.00700928 1.39001221 -0.00700928 2.80810547 -0.01416016 C8.17191042 -0.00162114 13.31782878 0.34197474 18.625 1.125 C18.625 1.785 18.625 2.445 18.625 3.125 C19.285 3.455 19.945 3.785 20.625 4.125 C19.635 4.125 18.645 4.125 17.625 4.125 C17.625 3.465 17.625 2.805 17.625 2.125 C3.765 2.125 -10.095 2.125 -24.375 2.125 C-25.035 3.445 -25.695 4.765 -26.375 6.125 C-28.33647874 7.51438077 -30.33666576 8.8510411 -32.375 10.125 C-36.73036893 14.48036893 -35.58050423 23.13947134 -35.69140625 28.99609375 C-35.71218735 29.918423 -35.73296844 30.84075226 -35.75437927 31.79103088 C-35.81935638 34.71478383 -35.87851684 37.63862061 -35.9375 40.5625 C-35.98073461 42.55404486 -36.02435042 44.54558148 -36.06835938 46.53710938 C-36.17498407 51.39965537 -36.27639503 56.26228504 -36.375 61.125 C-35.715 61.455 -35.055 61.785 -34.375 62.125 C-35.365 63.115 -36.355 64.105 -37.375 65.125 C-38.21025374 55.38069673 -38.58947161 45.70289641 -38.61523438 35.92700195 C-38.62509735 33.66517424 -38.65633543 31.40420045 -38.6875 29.14257812 C-38.69401927 27.67969275 -38.69927394 26.21680108 -38.703125 24.75390625 C-38.7124707 23.45525635 -38.72181641 22.15660645 -38.73144531 20.81860352 C-38.18897329 15.19733011 -36.21311732 10.58886232 -32.4375 6.3125 C-31.95410156 5.74917969 -31.47070312 5.18585938 -30.97265625 4.60546875 C-23.61430897 -2.21314645 -9.41181517 0.03303495 0 0 Z " fill="#D1D1D1" transform="translate(128.375,191.875)"/>
<path d="M0 0 C0.89009766 -0.01611328 1.78019531 -0.03222656 2.69726562 -0.04882812 C8.83608383 -0.05331229 13.87393403 1.01464277 19.5625 3.3125 C19.5625 4.6325 19.5625 5.9525 19.5625 7.3125 C16.6875 7.4375 16.6875 7.4375 13.5625 7.3125 C12.9025 6.6525 12.2425 5.9925 11.5625 5.3125 C6.73310525 3.293813 1.75339929 1.97799991 -3.4375 1.3125 C-3.4375 2.3025 -3.4375 3.2925 -3.4375 4.3125 C-0.7975 4.3125 1.8425 4.3125 4.5625 4.3125 C4.5625 4.9725 4.5625 5.6325 4.5625 6.3125 C7.0375 6.8075 7.0375 6.8075 9.5625 7.3125 C9.5625 7.6425 9.5625 7.9725 9.5625 8.3125 C1.9725 8.6425 -5.6175 8.9725 -13.4375 9.3125 C-9.4375 7.3125 -9.4375 7.3125 -0.4375 6.3125 C-7.3675 5.9825 -14.2975 5.6525 -21.4375 5.3125 C-15.63648413 -0.48851587 -7.77835506 -0.02804021 0 0 Z " fill="#D6D6D5" transform="translate(124.4375,231.6875)"/>
<path d="M0 0 C2.31 0 4.62 0 7 0 C8.6140925 1.6140925 8.12734318 3.36476408 8.12939453 5.59570312 C8.13254669 6.57341675 8.13569885 7.55113037 8.13894653 8.55847168 C8.1369223 9.62198853 8.13489807 10.68550537 8.1328125 11.78125 C8.13376923 12.86506958 8.13472595 13.94888916 8.13571167 15.06555176 C8.13639365 17.3622239 8.13453811 19.65889795 8.13037109 21.95556641 C8.12502312 25.48474428 8.1303155 29.01379487 8.13671875 32.54296875 C8.13605797 34.76822945 8.13477682 36.99349007 8.1328125 39.21875 C8.13483673 40.28226685 8.13686096 41.34578369 8.13894653 42.44152832 C8.13579437 43.41924194 8.13264221 44.39695557 8.12939453 45.40429688 C8.12820114 46.70216125 8.12820114 46.70216125 8.12698364 48.02624512 C8 50 8 50 7 51 C4.69 51 2.38 51 0 51 C0 34.17 0 17.34 0 0 Z M1 2 C1 17.51 1 33.02 1 49 C2.65 49 4.3 49 6 49 C6 33.49 6 17.98 6 2 C4.35 2 2.7 2 1 2 Z " fill="#5A5A5C" transform="translate(122,18)"/>
<path d="M0 0 C0.66 0 1.32 0 2 0 C1.85892253 1.45880109 1.71197585 2.91703551 1.5625 4.375 C1.48128906 5.18710938 1.40007812 5.99921875 1.31640625 6.8359375 C1 9 1 9 0 11 C-0.15691907 13.76931368 -0.25843134 16.51734107 -0.31640625 19.2890625 C-0.33718735 20.10748627 -0.35796844 20.92591003 -0.37937927 21.76913452 C-0.44484812 24.38766966 -0.50374726 27.00630639 -0.5625 29.625 C-0.60568776 31.39844807 -0.64930214 33.17188581 -0.69335938 34.9453125 C-0.80052676 39.29677046 -0.90180169 43.64833077 -1 48 C-1.99 48 -2.98 48 -4 48 C-4.09911689 42.12846769 -4.17158611 36.25742587 -4.21972656 30.38525391 C-4.23980169 28.38907382 -4.26706789 26.39295225 -4.30175781 24.39697266 C-4.35045657 21.5223138 -4.37300986 18.6484346 -4.390625 15.7734375 C-4.41127014 14.88570648 -4.43191528 13.99797546 -4.45318604 13.08334351 C-4.45521072 7.45128459 -3.76491999 4.28213703 0 0 Z " fill="#F1F1F1" transform="translate(96,205)"/>
<path d="M0 0 C0.33 0 0.66 0 1 0 C1.103125 1.093125 1.20625 2.18625 1.3125 3.3125 C1.99727202 6.98536808 2.27919304 7.75237686 5 10 C5 10.66 5 11.32 5 12 C6.32 12.33 7.64 12.66 9 13 C9 10.36 9 7.72 9 5 C9.99 4.67 10.98 4.34 12 4 C12 14.23 12 24.46 12 35 C11.67 35 11.34 35 11 35 C11 28.4 11 21.8 11 15 C10.01 15.33 9.02 15.66 8 16 C7.67 17.65 7.34 19.3 7 21 C6.01 20.67 5.02 20.34 4 20 C3.34 21.32 2.68 22.64 2 24 C1.34 23.67 0.68 23.34 0 23 C0 15.41 0 7.82 0 0 Z " fill="#C1C1C1" transform="translate(146,305)"/>
<path d="M0 0 C0.66 0 1.32 0 2 0 C2.87871853 5.28234621 3.14693246 10.35735604 3.1328125 15.70703125 C3.13376923 16.51363693 3.13472595 17.32024261 3.13571167 18.15129089 C3.13638809 19.84296752 3.1345716 21.53464682 3.13037109 23.22631836 C3.12497993 25.82216131 3.1303522 28.417834 3.13671875 31.01367188 C3.13605856 32.66145872 3.13477862 34.30924545 3.1328125 35.95703125 C3.13483673 36.73407913 3.13686096 37.51112701 3.13894653 38.3117218 C3.11498425 43.7700315 3.11498425 43.7700315 2 46 C1.01 46 0.02 46 -1 46 C-0.67 36.76 -0.34 27.52 0 18 C-0.66 18 -1.32 18 -2 18 C-2 16.35 -2 14.7 -2 13 C-1.34 13 -0.68 13 0 13 C0 8.71 0 4.42 0 0 Z " fill="#E8E8E8" transform="translate(98,270)"/>
<path d="M0 0 C5.28 0 10.56 0 16 0 C16 7 16 7 15 9 C10.38 9 5.76 9 1 9 C0.67 6.03 0.34 3.06 0 0 Z " fill="#F9F9F7" transform="translate(126,319)"/>
<path d="M0 0 C4.53897705 -0.02465392 9.07791543 -0.04283789 13.61694336 -0.05493164 C15.16219766 -0.0599714 16.70744716 -0.0668032 18.25268555 -0.07543945 C20.46925029 -0.08752076 22.68575218 -0.09323173 24.90234375 -0.09765625 C25.5971434 -0.10281754 26.29194305 -0.10797882 27.00779724 -0.11329651 C28.6722933 -0.11349277 30.33665499 -0.06189129 32 0 C33 1 33 1 33.11352539 4.51000977 C33.11336626 6.07048422 33.10767142 7.63096393 33.09765625 9.19140625 C33.0962413 10.01124496 33.09482635 10.83108368 33.09336853 11.67576599 C33.08775289 14.30471382 33.07519779 16.93357773 33.0625 19.5625 C33.05748701 21.34049357 33.05292376 23.11848846 33.04882812 24.89648438 C33.03777839 29.26435545 33.02050331 33.63216348 33 38 C32.67 38 32.34 38 32 38 C32 26.45 32 14.9 32 3 C16.16 3.495 16.16 3.495 0 4 C0 2.68 0 1.36 0 0 Z " fill="#B7B7B6" transform="translate(108,270)"/>
<path d="M0 0 C5.95395018 -0.6267316 10.71117684 1.51993038 16 4 C16.33 4.33 16.66 4.66 17 5 C18.66617115 5.04063832 20.33388095 5.042721 22 5 C22 4.34 22 3.68 22 3 C24.4375 3.6875 24.4375 3.6875 27 5 C27.875 7.5625 27.875 7.5625 28 10 C27.67 10.33 27.34 10.66 27 11 C26.76572222 13.01594582 26.58663876 15.038474 26.4375 17.0625 C26.35371094 18.16722656 26.26992187 19.27195313 26.18359375 20.41015625 C26.09271484 21.69212891 26.09271484 21.69212891 26 23 C25.67 22.34 25.34 21.68 25 21 C22.69 21 20.38 21 18 21 C18 20.67 18 20.34 18 20 C19.65 19.67 21.3 19.34 23 19 C23.66 16.03 24.32 13.06 25 10 C23.515 9.71125 22.03 9.4225 20.5 9.125 C15.95805563 8.21919913 11.48265053 7.16216866 7 6 C7.33 5.01 7.66 4.02 8 3 C5.36 3 2.72 3 0 3 C0 2.01 0 1.02 0 0 Z " fill="#CDCDCC" transform="translate(121,233)"/>
<path d="M0 0 C5.28 0 10.56 0 16 0 C15.67 2.97 15.34 5.94 15 9 C10.13103697 8.40380045 5.67209049 7.43023178 1 6 C0.67 4.02 0.34 2.04 0 0 Z " fill="#FAFBFA" transform="translate(107,331)"/>
<path d="M0 0 C4.62 0 9.24 0 14 0 C14 2.64 14 5.28 14 8 C9.38 8 4.76 8 0 8 C0 5.36 0 2.72 0 0 Z " fill="#FBFBFA" transform="translate(108,319)"/>
<path d="M0 0 C0.66 0 1.32 0 2 0 C2 0.99 2 1.98 2 3 C2.66 3 3.32 3 4 3 C4 2.34 4 1.68 4 1 C11.92295423 0.83696693 19.73168697 1.34882367 27.625 2 C29.41744141 2.14308594 29.41744141 2.14308594 31.24609375 2.2890625 C34.1643648 2.52252418 37.08229576 2.75957554 40 3 C40 3.66 40 4.32 40 5 C27.46 5 14.92 5 2 5 C1.67 10.61 1.34 16.22 1 22 C0.67 22 0.34 22 0 22 C0 14.74 0 7.48 0 0 Z " fill="#DFDFDE" transform="translate(103,261)"/>
<path d="M0 0 C1.32 0.33 2.64 0.66 4 1 C4 3.64 4 6.28 4 9 C5.32 8.67 6.64 8.34 8 8 C8 10.64 8 13.28 8 16 C7.01 16 6.02 16 5 16 C5 14.35 5 12.7 5 11 C4.01 11 3.02 11 2 11 C2 17.93 2 24.86 2 32 C1.34 32 0.68 32 0 32 C0 21.44 0 10.88 0 0 Z " fill="#D1D1D2" transform="translate(90,309)"/>
<path d="M0 0 C0.33 0 0.66 0 1 0 C1.12117188 0.71285156 1.24234375 1.42570313 1.3671875 2.16015625 C2.31098209 7.5543053 3.45337163 12.74146354 5 18 C6.25281124 23.6833231 6.12697137 29.29836012 6.09765625 35.0859375 C6.0962413 36.14285797 6.09482635 37.19977844 6.09336853 38.28872681 C6.0877894 41.65084716 6.07524069 45.01289991 6.0625 48.375 C6.05748231 50.66015529 6.05291987 52.94531162 6.04882812 55.23046875 C6.03782679 60.8203354 6.02110944 66.41016287 6 72 C5.67 72 5.34 72 5 72 C4.98018066 70.79053711 4.96036133 69.58107422 4.93994141 68.33496094 C4.86315935 63.79473038 4.77456166 59.25479045 4.68261719 54.71484375 C4.64462439 52.75982452 4.60972311 50.80474242 4.578125 48.84960938 C4.40665412 34.51741066 4.40665412 34.51741066 2.41552734 20.34863281 C1.97438616 17.85522611 1.93071594 15.5268966 2 13 C1.34 13 0.68 13 0 13 C-0.33 12.01 -0.66 11.02 -1 10 C-1.66 10 -2.32 10 -3 10 C-2.21302675 6.58978257 -1.12880057 3.31114834 0 0 Z " fill="#B8B8B8" transform="translate(96,247)"/>
<path d="M0 0 C4.62 0 9.24 0 14 0 C14 2.31 14 4.62 14 7 C9.23692563 7.95261487 4.8333472 8.08333357 0 8 C0 5.36 0 2.72 0 0 Z " fill="#FBFBFA" transform="translate(126,331)"/>
<path d="M0 0 C3.40366961 3.46444943 4.50973655 5.94563552 4.546875 10.83398438 C4.53140625 11.52814453 4.5159375 12.22230469 4.5 12.9375 C4.51546875 13.62779297 4.5309375 14.31808594 4.546875 15.02929688 C4.50830142 20.11618757 3.25049739 23.12487345 0 27 C-0.66 27 -1.32 27 -2 27 C-2 27.66 -2 28.32 -2 29 C-4.76452033 30.38226016 -7.0461363 30.09525387 -10.125 30.0625 C-11.22070312 30.05347656 -12.31640625 30.04445313 -13.4453125 30.03515625 C-14.70988281 30.01775391 -14.70988281 30.01775391 -16 30 C-13.1188622 28.07924147 -10.68495267 27.07475706 -7.4375 25.9375 C-3.65253559 24.62433842 -3.65253559 24.62433842 0 23 C0.47618812 20.12817413 0.84167597 17.32879853 1.125 14.4375 C1.21136719 13.63119141 1.29773438 12.82488281 1.38671875 11.99414062 C1.59943628 9.99695936 1.80077855 7.99857263 2 6 C1.01 6 0.02 6 -1 6 C-1.042721 4.33388095 -1.04063832 2.66617115 -1 1 C-0.67 0.67 -0.34 0.34 0 0 Z " fill="#8C8F8F" transform="translate(147,327)"/>
<path d="M0 0 C0.87462891 0.06123047 1.74925781 0.12246094 2.65039062 0.18554688 C4.78891024 0.33746357 6.92592338 0.5103413 9.0625 0.6875 C9.3925 1.3475 9.7225 2.0075 10.0625 2.6875 C-4.53431093 4.98362756 -4.53431093 4.98362756 -11.9375 4.6875 C-12.5975 6.0075 -13.2575 7.3275 -13.9375 8.6875 C-13.9375 7.6975 -13.9375 6.7075 -13.9375 5.6875 C-14.9275 5.6875 -15.9175 5.6875 -16.9375 5.6875 C-16.9375 4.6975 -16.9375 3.7075 -16.9375 2.6875 C-11.01976446 -0.43597235 -6.59214703 -0.56647347 0 0 Z " fill="#BCBCBC" transform="translate(114.9375,236.3125)"/>
<path d="M0 0 C0.33 0 0.66 0 1 0 C1 11.55 1 23.1 1 35 C3.64 35 6.28 35 9 35 C9 35.66 9 36.32 9 37 C5.7 37 2.4 37 -1 37 C-1.0246501 31.89136104 -1.04283607 26.78275641 -1.05493164 21.67407227 C-1.05997204 19.93480832 -1.0668043 18.19554864 -1.07543945 16.45629883 C-1.08751792 13.96174063 -1.09323108 11.46723827 -1.09765625 8.97265625 C-1.10281754 8.19036148 -1.10797882 7.40806671 -1.11329651 6.60206604 C-1.11349226 4.73432886 -1.06199694 2.86670796 -1 1 C-0.67 0.67 -0.34 0.34 0 0 Z " fill="#E9E9E8" transform="translate(111,275)"/>
<path d="M0 0 C0.33 0 0.66 0 1 0 C1 15.51 1 31.02 1 47 C0.34 46.01 -0.32 45.02 -1 44 C-1.66 44 -2.32 44 -3 44 C-3 37.07 -3 30.14 -3 23 C-2.67 23 -2.34 23 -2 23 C-2 26.3 -2 29.6 -2 33 C-1.34 33 -0.68 33 0 33 C0 22.11 0 11.22 0 0 Z " fill="#E5E5E5" transform="translate(158,208)"/>
<path d="M0 0 C0.33 0 0.66 0 1 0 C1 2.31 1 4.62 1 7 C1.99 7 2.98 7 4 7 C4 8.65 4 10.3 4 12 C3.01 12.495 3.01 12.495 2 13 C1.67 20.59 1.34 28.18 1 36 C1.66 36 2.32 36 3 36 C2.67 37.32 2.34 38.64 2 40 C-0.21392471 38.25479895 -0.94295623 37.39129684 -1.35644531 34.55493164 C-1.34242676 33.12201782 -1.34242676 33.12201782 -1.328125 31.66015625 C-1.32296875 30.59603516 -1.3178125 29.53191406 -1.3125 28.43554688 C-1.291875 27.32244141 -1.27125 26.20933594 -1.25 25.0625 C-1.24484375 23.98419922 -1.2396875 22.90589844 -1.234375 21.79492188 C-1.16436992 14.49251734 -0.7045344 7.26735426 0 0 Z " fill="#E7E7E6" transform="translate(149,276)"/>
<path d="M0 0 C0 0.66 0 1.32 0 2 C-1.05058594 2.02578125 -2.10117188 2.0515625 -3.18359375 2.078125 C-11.25007153 2.369233 -17.86161026 2.88766678 -25 7 C-26.07507813 7.49693359 -26.07507813 7.49693359 -27.171875 8.00390625 C-29.17207798 8.86796161 -29.17207798 8.86796161 -30 11 C-30.66 11 -31.32 11 -32 11 C-32.33 12.32 -32.66 13.64 -33 15 C-33.66 15 -34.32 15 -35 15 C-34.77938101 11.13916775 -34.11427194 10.10411443 -31.1875 7.4375 C-30.68605469 7.06496094 -30.18460937 6.69242188 -29.66796875 6.30859375 C-27.86685466 4.99008033 -27.86685466 4.99008033 -26.25 2.89453125 C-23.13077956 0.26810432 -20.84639967 0.39803302 -16.8125 0.25 C-16.14919678 0.22107666 -15.48589355 0.19215332 -14.80249023 0.16235352 C-9.86811502 -0.03526175 -4.93688733 -0.08661206 0 0 Z " fill="#9E9E9F" transform="translate(128,193)"/>
<path d="M0 0 C5.28 0 10.56 0 16 0 C16.33 0.99 16.66 1.98 17 3 C16.34 3.66 15.68 4.32 15 5 C17.31 5 19.62 5 22 5 C21.67 6.32 21.34 7.64 21 9 C18.69 9 16.38 9 14 9 C14 8.01 14 7.02 14 6 C12.02 6.66 10.04 7.32 8 8 C8 6.68 8 5.36 8 4 C7.34 4 6.68 4 6 4 C6 3.01 6 2.02 6 1 C4.02 1 2.04 1 0 1 C0 0.67 0 0.34 0 0 Z " fill="#DDDDDC" transform="translate(120,253)"/>
<path d="M0 0 C1.51815699 0.00015911 3.0363194 0.00585313 4.55444336 0.01586914 C5.35208603 0.01728409 6.1497287 0.01869904 6.97154236 0.02015686 C9.52916146 0.02577223 12.08669429 0.03832727 14.64428711 0.05102539 C16.37410356 0.05603841 18.10392137 0.06060166 19.83374023 0.06469727 C24.08312264 0.07574664 28.33244023 0.09302153 32.58178711 0.11352539 C32.58178711 0.77352539 32.58178711 1.43352539 32.58178711 2.11352539 C21.03178711 2.11352539 9.48178711 2.11352539 -2.41821289 2.11352539 C-2.41821289 3.43352539 -2.41821289 4.75352539 -2.41821289 6.11352539 C-3.07821289 6.11352539 -3.73821289 6.11352539 -4.41821289 6.11352539 C-4.46093389 4.44740634 -4.45885121 2.77969654 -4.41821289 1.11352539 C-3.41821289 0.11352539 -3.41821289 0.11352539 0 0 Z " fill="#D1D1CF" transform="translate(109.418212890625,315.886474609375)"/>
<path d="M0 0 C0.66 0 1.32 0 2 0 C1.85892253 1.45880109 1.71197585 2.91703551 1.5625 4.375 C1.48128906 5.18710938 1.40007812 5.99921875 1.31640625 6.8359375 C1 9 1 9 0 11 C-0.15691907 13.76931368 -0.25843134 16.51734107 -0.31640625 19.2890625 C-0.33718735 20.10748627 -0.35796844 20.92591003 -0.37937927 21.76913452 C-0.44484812 24.38766966 -0.50374726 27.00630639 -0.5625 29.625 C-0.60568776 31.39844807 -0.64930214 33.17188581 -0.69335938 34.9453125 C-0.80052676 39.29677046 -0.90180169 43.64833077 -1 48 C-1.33 48 -1.66 48 -2 48 C-2.02505615 46.86981445 -2.0501123 45.73962891 -2.07592773 44.57519531 C-2.17016956 40.37814183 -2.27034926 36.18124737 -2.37231445 31.984375 C-2.41559986 30.16865766 -2.45727944 28.35290129 -2.49731445 26.53710938 C-2.55517202 23.92566167 -2.61882172 21.31440923 -2.68359375 18.703125 C-2.70030624 17.89256653 -2.71701874 17.08200806 -2.73423767 16.24688721 C-2.79720558 12.04804678 -2.79720558 12.04804678 -3.62611389 7.95672607 C-4 6 -4 6 -2.1875 2.75 C-1.465625 1.8425 -0.74375 0.935 0 0 Z " fill="#E6E7E5" transform="translate(96,205)"/>
<path d="M0 0 C0.33 0 0.66 0 1 0 C1.66 3.63 2.32 7.26 3 11 C3.66 11 4.32 11 5 11 C5.33 9.68 5.66 8.36 6 7 C6.3403125 8.3303125 6.3403125 8.3303125 6.6875 9.6875 C8.17339721 13.43762153 10.10370741 15.25614386 13 18 C13 18.66 13 19.32 13 20 C8.79160124 19.38111783 5.4793876 18.49608241 2 16 C-0.57278618 10.74297121 -1.65465247 5.71607215 0 0 Z " fill="#EBEAEC" transform="translate(92,337)"/>
<path d="M0 0 C0.33 0 0.66 0 1 0 C1.33 2.97 1.66 5.94 2 9 C2.66 8.67 3.32 8.34 4 8 C4.81163525 11.76303616 5.32502401 14.18743997 3.875 17.8125 C1.70960085 20.33879901 0.18549599 21.1239886 -3 22 C-3.99 22 -4.98 22 -6 22 C-6 21.34 -6 20.68 -6 20 C-5.34 20 -4.68 20 -4 20 C-3.690625 19.38125 -3.38125 18.7625 -3.0625 18.125 C-2.375 16.75 -1.6875 15.375 -1 14 C-0.76970044 11.62876754 -0.58880058 9.25258057 -0.4375 6.875 C-0.35371094 5.59367187 -0.26992187 4.31234375 -0.18359375 2.9921875 C-0.09271484 1.51105469 -0.09271484 1.51105469 0 0 Z " fill="#DFDEDE" transform="translate(151,334)"/>
<path d="M0 0 C0.66 0 1.32 0 2 0 C2.66 10.56 3.32 21.12 4 32 C3.34 32 2.68 32 2 32 C0.22374277 24.70472932 -0.25501764 17.86601622 -0.125 10.375 C-0.11597656 9.37082031 -0.10695313 8.36664063 -0.09765625 7.33203125 C-0.07437746 4.88775874 -0.04168487 2.44401592 0 0 Z " fill="#F1F1F2" transform="translate(92,286)"/>
<path d="M0 0 C0.99 0 1.98 0 3 0 C3.02689216 1.47906892 3.04634621 2.95827483 3.0625 4.4375 C3.07410156 5.26121094 3.08570312 6.08492188 3.09765625 6.93359375 C3 9 3 9 2 10 C0.58429877 10.08651611 -0.835595 10.10704904 -2.25390625 10.09765625 C-3.10791016 10.09443359 -3.96191406 10.09121094 -4.84179688 10.08789062 C-5.73962891 10.07951172 -6.63746094 10.07113281 -7.5625 10.0625 C-8.46419922 10.05798828 -9.36589844 10.05347656 -10.29492188 10.04882812 C-12.53001314 10.03700225 -14.76497437 10.0205222 -17 10 C-17 9.34 -17 8.68 -17 8 C-11.72 8 -6.44 8 -1 8 C-1 5.69 -1 3.38 -1 1 C-0.67 0.67 -0.34 0.34 0 0 Z " fill="#D3D3D2" transform="translate(123,320)"/>
<path d="M0 0 C0.99 0 1.98 0 3 0 C3 7.92 3 15.84 3 24 C2.34 24 1.68 24 1 24 C0.01956036 21.05868109 -0.11621202 19.17498335 -0.09765625 16.11328125 C-0.09443359 15.17548828 -0.09121094 14.23769531 -0.08789062 13.27148438 C-0.07532227 11.80678711 -0.07532227 11.80678711 -0.0625 10.3125 C-0.05798828 9.32443359 -0.05347656 8.33636719 -0.04882812 7.31835938 C-0.03704303 4.87884526 -0.02059011 2.43945311 0 0 Z " fill="#B3B4B4" transform="translate(95,288)"/>
<path d="M0 0 C0.99 0 1.98 0 3 0 C3.39520958 13.56886228 3.39520958 13.56886228 1 18 C-0.32 18.33 -1.64 18.66 -3 19 C-2.01 12.73 -1.02 6.46 0 0 Z " fill="#CCCBCA" transform="translate(146,333)"/>
<path d="M0 0 C2.475 0.495 2.475 0.495 5 1 C5.41659944 2.93314127 5.80764837 4.87180347 6.1875 6.8125 C6.40792969 7.89144531 6.62835938 8.97039062 6.85546875 10.08203125 C7 13 7 13 5.55078125 14.88671875 C5.03902344 15.25410156 4.52726563 15.62148437 4 16 C3.67 14.35 3.34 12.7 3 11 C2.01 11.495 2.01 11.495 1 12 C-0.3271261 8.0186217 -0.06915913 4.14954773 0 0 Z " fill="#E4E4E4" transform="translate(141,198)"/>
<path d="M0 0 C0.33 0 0.66 0 1 0 C1.34958671 9.08925459 -0.44236347 17.73719047 -2.4921875 26.5546875 C-3.55298253 31.66282355 -4.25012493 36.83862587 -5 42 C-5.33 42 -5.66 42 -6 42 C-6.10481309 36.23528001 -5.73291127 30.7147271 -5 25 C-4.90460937 24.22527344 -4.80921875 23.45054687 -4.7109375 22.65234375 C-4.47826451 20.76769254 -4.23975175 18.88376378 -4 17 C-3.67 17 -3.34 17 -3 17 C-2.86722656 15.94039063 -2.73445313 14.88078125 -2.59765625 13.7890625 C-2.41946125 12.40101721 -2.2410654 11.01299769 -2.0625 9.625 C-1.93198242 8.57699219 -1.93198242 8.57699219 -1.79882812 7.5078125 C-1.11328125 2.2265625 -1.11328125 2.2265625 0 0 Z " fill="#99999A" transform="translate(24,308)"/>
<path d="M0 0 C3.96 0 7.92 0 12 0 C12.33 1.32 12.66 2.64 13 4 C10.69 4 8.38 4 6 4 C6 4.66 6 5.32 6 6 C5.34 6 4.68 6 4 6 C4 5.01 4 4.02 4 3 C3.34 3 2.68 3 2 3 C2.33 4.98 2.66 6.96 3 9 C2.34 8.67 1.68 8.34 1 8 C0.40644386 5.35139573 0.25790731 2.70802678 0 0 Z " fill="#C8C8C7" transform="translate(101,258)"/>
<path d="M0 0 C0.66 0 1.32 0 2 0 C2.05819424 3.24992446 2.09366116 6.49971435 2.125 9.75 C2.14175781 10.67039062 2.15851563 11.59078125 2.17578125 12.5390625 C2.18222656 13.42851562 2.18867187 14.31796875 2.1953125 15.234375 C2.20578613 16.05131836 2.21625977 16.86826172 2.22705078 17.70996094 C1.97829916 20.21887518 1.25700129 21.83395625 0 24 C-1.05539054 16.34841858 -1.36063233 8.72177465 -1 1 C-0.67 0.67 -0.34 0.34 0 0 Z " fill="#EDEDEC" transform="translate(93,259)"/>
<path d="M0 0 C1.89551022 -0.05441656 3.7914792 -0.09298035 5.6875 -0.125 C6.74324219 -0.14820313 7.79898438 -0.17140625 8.88671875 -0.1953125 C12.02251859 0.00141271 14.17645373 0.66942346 17 2 C17 3.32 17 4.64 17 6 C14.125 6.125 14.125 6.125 11 6 C10.34 5.34 9.68 4.68 9 4 C7.47943382 3.40165446 5.93387912 2.86493344 4.375 2.375 C3.55773437 2.11460937 2.74046875 1.85421875 1.8984375 1.5859375 C0.95871094 1.29589844 0.95871094 1.29589844 0 1 C0 0.67 0 0.34 0 0 Z " fill="#CECECD" transform="translate(127,233)"/>
<path d="M0 0 C2.31 0 4.62 0 7 0 C7.53132662 10.96107141 5.90858766 21.24147312 4 32 C3.67 32 3.34 32 3 32 C2.81043061 25.36507139 3.54438632 19.06015881 4.5 12.5 C4.71462891 10.98019531 4.71462891 10.98019531 4.93359375 9.4296875 C5.28415582 6.95238218 5.63972847 4.47590863 6 2 C4.68 2.33 3.36 2.66 2 3 C1.67 4.65 1.34 6.3 1 8 C0.67 8 0.34 8 0 8 C0 5.36 0 2.72 0 0 Z " fill="#5A5A5B" transform="translate(70,4)"/>
<path d="M0 0 C0.99 0.33 1.98 0.66 3 1 C3 3.64 3 6.28 3 9 C4.32 8.67 5.64 8.34 7 8 C7 10.64 7 13.28 7 16 C6.01 16 5.02 16 4 16 C4 14.35 4 12.7 4 11 C3.01 11 2.02 11 1 11 C-0.28317892 7.15046324 -0.06643637 4.05261865 0 0 Z " fill="#B4B4B5" transform="translate(91,309)"/>
<path d="M0 0 C5.83252954 -0.61395048 10.91407579 1.26494364 16 4 C16.99 5.485 16.99 5.485 18 7 C14.37 6.67 10.74 6.34 7 6 C7.33 5.01 7.66 4.02 8 3 C5.36 3 2.72 3 0 3 C0 2.01 0 1.02 0 0 Z " fill="#B0B0AE" transform="translate(121,233)"/>
<path d="M0 0 C0.33 0 0.66 0 1 0 C1.06058594 1.07121094 1.12117188 2.14242188 1.18359375 3.24609375 C1.26798537 4.64324391 1.35263406 6.04037857 1.4375 7.4375 C1.47681641 8.14455078 1.51613281 8.85160156 1.55664062 9.58007812 C1.47624438 13.08690419 1.47624438 13.08690419 3 16 C3.09823996 17.47648876 3.12973519 18.95775417 3.125 20.4375 C3.12757812 21.24058594 3.13015625 22.04367187 3.1328125 22.87109375 C3 25 3 25 2 27 C1.01 27 0.02 27 -1 27 C-0.67 18.09 -0.34 9.18 0 0 Z " fill="#E1E1E1" transform="translate(98,289)"/>
<path d="M0 0 C3.53677664 -0.32152515 5.3962104 -0.4131192 8.375 1.625 C10.4131192 4.6037896 10.32152515 6.46322336 10 10 C9.2575 9.360625 8.515 8.72125 7.75 8.0625 C5.2888879 6.21666593 3.96533074 5.43930826 1 5 C0.67 3.35 0.34 1.7 0 0 Z " fill="#9D9D9E" transform="translate(145,197)"/>
<path d="M0 0 C0.33 0 0.66 0 1 0 C1 2.64 1 5.28 1 8 C-10.52164009 8.3690205 -10.52164009 8.3690205 -16 6 C-15.34 5.01 -14.68 4.02 -14 3 C-9.38 3.99 -4.76 4.98 0 6 C0 4.02 0 2.04 0 0 Z " fill="#E4E4E3" transform="translate(122,334)"/>
<path d="M0 0 C9.57 0 19.14 0 29 0 C29 0.99 29 1.98 29 3 C28.15050781 2.835 27.30101562 2.67 26.42578125 2.5 C22.94100498 1.99138955 19.70562895 1.93682372 16.1875 2 C10.68541342 2.0466773 5.44663108 1.75125946 0 1 C0 0.67 0 0.34 0 0 Z " fill="#F0F0EE" transform="translate(110,273)"/>
<path d="M0 0 C0.33 0 0.66 0 1 0 C1 11.22 1 22.44 1 34 C0.67 34 0.34 34 0 34 C-0.02505615 33.41508789 -0.0501123 32.83017578 -0.07592773 32.22753906 C-0.19222962 29.56815529 -0.31480067 26.90909597 -0.4375 24.25 C-0.49647461 22.86941406 -0.49647461 22.86941406 -0.55664062 21.4609375 C-0.59853516 20.57148438 -0.64042969 19.68203125 -0.68359375 18.765625 C-0.72025146 17.94868164 -0.75690918 17.13173828 -0.79467773 16.29003906 C-0.93874649 14.00559118 -0.93874649 14.00559118 -1.54101562 11.86328125 C-2.17695196 9.28165035 -1.63889291 7.32681536 -1.0625 4.75 C-0.86785156 3.85796875 -0.67320312 2.9659375 -0.47265625 2.046875 C-0.31667969 1.37140625 -0.16070312 0.6959375 0 0 Z " fill="#9FA09C" transform="translate(152,247)"/>
<path d="M0 0 C0.33 0 0.66 0 1 0 C1.33 12.87 1.66 25.74 2 39 C0.515 39.495 0.515 39.495 -1 40 C-0.67 26.8 -0.34 13.6 0 0 Z " fill="#D1D1D0" transform="translate(139,273)"/>
<path d="M0 0 C0.99 0.33 1.98 0.66 3 1 C3 12.55 3 24.1 3 36 C2.67 36 2.34 36 2 36 C1.98018066 35.1121582 1.96036133 34.22431641 1.93994141 33.30957031 C1.86171768 30.00688666 1.77502115 26.70464936 1.68261719 23.40234375 C1.64439976 21.97469602 1.60953428 20.54695437 1.578125 19.11914062 C1.53231599 17.06346132 1.4743502 15.00842446 1.4140625 12.953125 C1.3826416 11.71723633 1.3512207 10.48134766 1.31884766 9.20800781 C1.01866557 6.18779907 0.4064747 4.60804254 -1 2 C-0.67 1.34 -0.34 0.68 0 0 Z " fill="#C6C6C6" transform="translate(155,205)"/>
<path d="M0 0 C0.99 0 1.98 0 3 0 C3 3.63 3 7.26 3 11 C2.34 10.67 1.68 10.34 1 10 C0.34 10.99 -0.32 11.98 -1 13 C-1.22245393 11.39773045 -1.42746669 9.79303233 -1.625 8.1875 C-1.74101563 7.29417969 -1.85703125 6.40085938 -1.9765625 5.48046875 C-2 3 -2 3 0 0 Z " fill="#E1E1E1" transform="translate(104,198)"/>
<path d="M0 0 C0.99 0 1.98 0 3 0 C3 0.99 3 1.98 3 3 C4.27875 3.061875 5.5575 3.12375 6.875 3.1875 C7.59429687 3.22230469 8.31359375 3.25710938 9.0546875 3.29296875 C10.01761719 3.14794922 10.01761719 3.14794922 11 3 C11.66 2.01 12.32 1.02 13 0 C14.35015859 4.05047576 13.62084998 6.7920168 13 11 C12.67 11 12.34 11 12 11 C12 9.02 12 7.04 12 5 C11.09507812 5.01740234 11.09507812 5.01740234 10.171875 5.03515625 C8.97304687 5.04869141 8.97304687 5.04869141 7.75 5.0625 C6.56664062 5.07990234 6.56664062 5.07990234 5.359375 5.09765625 C3.09308998 5.00385306 1.1711105 4.63241063 -1 4 C-0.67 2.68 -0.34 1.36 0 0 Z " fill="#C6C6C4" transform="translate(131,259)"/>
<path d="M0 0 C1.16158513 3.4765172 0.8436384 6.04692154 0.1875 9.625 C-0.00328125 10.68074219 -0.1940625 11.73648438 -0.390625 12.82421875 C-1.23445518 17.22187216 -2.09552218 21.61442269 -3 26 C-3.33423224 27.66648663 -3.66779745 29.33310757 -4 31 C-4.33 31 -4.66 31 -5 31 C-4.505 22.09 -4.505 22.09 -4 13 C-3.34 13 -2.68 13 -2 13 C-1.93941406 12.22914062 -1.87882812 11.45828125 -1.81640625 10.6640625 C-1.69072266 9.15972656 -1.69072266 9.15972656 -1.5625 7.625 C-1.48128906 6.62726563 -1.40007813 5.62953125 -1.31640625 4.6015625 C-1 2 -1 2 0 0 Z " fill="#B2B2B2" transform="translate(60,74)"/>
<path d="M0 0 C2.97 0 5.94 0 9 0 C9 0.66 9 1.32 9 2 C10.65 2 12.3 2 14 2 C14 1.34 14 0.68 14 0 C14.99 0.33 15.98 0.66 17 1 C12.89042374 3.98878273 10.03415457 4.37290034 5 4 C4.01 3.67 3.02 3.34 2 3 C2 2.34 2 1.68 2 1 C1.34 0.67 0.68 0.34 0 0 Z " fill="#9B9C9C" transform="translate(113,356)"/>
<path d="M0 0 C0.33 0.99 0.66 1.98 1 3 C-0.11328125 4.48828125 -0.11328125 4.48828125 -2 6 C-4.91796875 6.29296875 -4.91796875 6.29296875 -8.1875 6.1875 C-9.27417969 6.16042969 -10.36085937 6.13335937 -11.48046875 6.10546875 C-12.31191406 6.07066406 -13.14335937 6.03585937 -14 6 C-11.09091772 4.06061181 -8.59137621 3.03225043 -5.3125 1.875 C-4.31863281 1.52179688 -3.32476562 1.16859375 -2.30078125 0.8046875 C-1.54152344 0.53914063 -0.78226563 0.27359375 0 0 Z " fill="#949798" transform="translate(145,351)"/>
<path d="M0 0 C2.97 0 5.94 0 9 0 C9 0.99 9 1.98 9 3 C8.34 3 7.68 3 7 3 C7 3.66 7 4.32 7 5 C5.02 5 3.04 5 1 5 C0.67 3.35 0.34 1.7 0 0 Z " fill="#D6D6D4" transform="translate(106,253)"/>
<path d="M0 0 C2.4375 0.375 2.4375 0.375 5 1 C5.33 1.66 5.66 2.32 6 3 C5.34 3 4.68 3 4 3 C4 7.62 4 12.24 4 17 C2.06540616 13.13081233 1.46677076 10.47693399 0.875 6.25 C0.70742187 5.07953125 0.53984375 3.9090625 0.3671875 2.703125 C0.24601563 1.81109375 0.12484375 0.9190625 0 0 Z " fill="#C7C7C7" transform="translate(146,202)"/>
<path d="M0 0 C2.475 0.99 2.475 0.99 5 2 C4.34 3.32 3.68 4.64 3 6 C-3.625 6.25 -3.625 6.25 -7 4 C-4.69 3.34 -2.38 2.68 0 2 C0 1.34 0 0.68 0 0 Z " fill="#C6C6C6" transform="translate(143,236)"/>
<path d="M0 0 C0.66 0 1.32 0 2 0 C2 1.65 2 3.3 2 5 C1.34 5 0.68 5 0 5 C0 7.97 0 10.94 0 14 C-0.33 13.01 -0.66 12.02 -1 11 C-1.66 11 -2.32 11 -3 11 C-2.53199289 6.94393835 -2.12046792 3.53411321 0 0 Z " fill="#A2B3B2" transform="translate(100,328)"/>
<path d="M0 0 C0.33 0 0.66 0 1 0 C1 1.98 1 3.96 1 6 C1.66 6 2.32 6 3 6 C2.67 7.32 2.34 8.64 2 10 C1.34 10 0.68 10 0 10 C0 8.35 0 6.7 0 5 C-1.98 5.33 -3.96 5.66 -6 6 C-6 5.01 -6 4.02 -6 3 C-5.01 3 -4.02 3 -3 3 C-2.67 2.34 -2.34 1.68 -2 1 C-2 1.66 -2 2.32 -2 3 C-1.34 3 -0.68 3 0 3 C0 2.01 0 1.02 0 0 Z " fill="#C1C1BF" transform="translate(95,254)"/>
<path d="M0 0 C0.99 0 1.98 0 3 0 C3 5.61 3 11.22 3 17 C2.67 17 2.34 17 2 17 C0.7017874 11.23918159 -0.25706972 5.91260345 0 0 Z " fill="#EAE9E9" transform="translate(142,330)"/>
<path d="M0 0 C0.99 0.33 1.98 0.66 3 1 C3 2.32 3 3.64 3 5 C7.62 5 12.24 5 17 5 C17 5.33 17 5.66 17 6 C11.72 6 6.44 6 1 6 C0.67 6.66 0.34 7.32 0 8 C0 5.36 0 2.72 0 0 Z " fill="#E4E4E3" transform="translate(105,322)"/>
<path d="M0 0 C0.33 0 0.66 0 1 0 C2.7610915 12.9019095 2.7610915 12.9019095 0.0625 16.8125 C-0.618125 17.534375 -1.29875 18.25625 -2 19 C-3 16 -3 16 -2.125 13.4375 C-0.67004343 8.99179937 -0.34885594 4.6452922 0 0 Z " fill="#AFA7A7" transform="translate(149,335)"/>
<path d="M0 0 C0.99 0.495 0.99 0.495 2 1 C2.625 3.5625 2.625 3.5625 3 6 C3.33 6 3.66 6 4 6 C4 7.65 4 9.3 4 11 C2.68 11.33 1.36 11.66 0 12 C0 8.04 0 4.08 0 0 Z " fill="#C3C3C2" transform="translate(91,273)"/>
<path d="M0 0 C0.66 0 1.32 0 2 0 C1.5547115 5.27315333 0.91626837 10.01770224 -1 15 C-1.33 15 -1.66 15 -2 15 C-2.3690205 4.44191344 -2.3690205 4.44191344 0 0 Z " fill="#A7A7A5" transform="translate(146,257)"/>
<path d="M0 0 C0.66 0 1.32 0 2 0 C2 3.63 2 7.26 2 11 C1.67 10.34 1.34 9.68 1 9 C0.01 9 -0.98 9 -2 9 C-1.41196203 5.97580475 -0.77321882 2.98241547 0 0 Z " fill="#CBCBC9" transform="translate(156,274)"/>
<path d="M0 0 C0.66 0.33 1.32 0.66 2 1 C1.34 4.63 0.68 8.26 0 12 C-0.66 12 -1.32 12 -2 12 C-1.67 9.03 -1.34 6.06 -1 3 C-1.66 2.67 -2.32 2.34 -3 2 C-2.01 1.34 -1.02 0.68 0 0 Z " fill="#C5C5C5" transform="translate(101,200)"/>
<path d="M0 0 C0.33 0 0.66 0 1 0 C1.33 3.96 1.66 7.92 2 12 C1.34 12 0.68 12 0 12 C-0.33 11.34 -0.66 10.68 -1 10 C-1.66 10 -2.32 10 -3 10 C-2.21302675 6.58978257 -1.12880057 3.31114834 0 0 Z " fill="#9E9E9B" transform="translate(96,247)"/>
<path d="M0 0 C0.66 0 1.32 0 2 0 C2 2.97 2 5.94 2 9 C1.01 9 0.02 9 -1 9 C-1.09765625 2.84765625 -1.09765625 2.84765625 -1 1 C-0.67 0.67 -0.34 0.34 0 0 Z " fill="#B2B2B2" transform="translate(124,333)"/>
<path d="M0 0 C0.33 0 0.66 0 1 0 C1.06058594 0.80824219 1.12117187 1.61648438 1.18359375 2.44921875 C1.26738281 3.51785156 1.35117188 4.58648437 1.4375 5.6875 C1.51871094 6.74324219 1.59992188 7.79898437 1.68359375 8.88671875 C1.96451681 11.65086297 2.40156852 14.28945741 3 17 C2.34 17 1.68 17 1 17 C-0.18681726 13.43954823 -0.09689832 10.56191663 -0.0625 6.8125 C-0.05347656 5.54019531 -0.04445312 4.26789063 -0.03515625 2.95703125 C-0.02355469 1.98121094 -0.01195312 1.00539063 0 0 Z " fill="#B6B6B6" transform="translate(146,305)"/>
<path d="M0 0 C0.66 0 1.32 0 2 0 C2.98248524 4.0527516 3.08159574 7.83861737 3 12 C2.34 12 1.68 12 1 12 C0.01751476 7.9472484 -0.08159574 4.16138263 0 0 Z " fill="#D6D6D5" transform="translate(97,246)"/>
<path d="M0 0 C-0.66 1.32 -1.32 2.64 -2 4 C-3.98 4 -5.96 4 -8 4 C-8 3.01 -8 2.02 -8 1 C-5.07175348 0.02391783 -3.04386724 -0.08226668 0 0 Z " fill="#9E9E9E" transform="translate(110,236)"/>
<path d="M0 0 C0.33 0 0.66 0 1 0 C1.20674944 5.78898419 0.59162079 10.42932723 -1 16 C-1.33 16 -1.66 16 -2 16 C-2.05449838 14.27119018 -2.09301688 12.54187288 -2.125 10.8125 C-2.14820313 9.84957031 -2.17140625 8.88664063 -2.1953125 7.89453125 C-1.9913544 4.87187222 -1.26874632 2.73230015 0 0 Z " fill="#404042" transform="translate(57,135)"/>
<path d="M0 0 C0.33 0 0.66 0 1 0 C1 3.3 1 6.6 1 10 C1.66 10 2.32 10 3 10 C3 12.31 3 14.62 3 17 C2.67 16.01 2.34 15.02 2 14 C1.34 14 0.68 14 0 14 C0 9.38 0 4.76 0 0 Z " fill="#E8E8E6" transform="translate(155,231)"/>
<path d="M0 0 C0.33 0 0.66 0 1 0 C1.21824777 6.0018137 0.5056904 11.19233704 -1 17 C-1.33 17 -1.66 17 -2 17 C-2.3690205 5.47835991 -2.3690205 5.47835991 0 0 Z " fill="#A0A0A1" transform="translate(42,189)"/>
<path d="M0 0 C0.99 0.33 1.98 0.66 3 1 C2.34 3.31 1.68 5.62 1 8 C0.01 7.67 -0.98 7.34 -2 7 C-1.34 4.69 -0.68 2.38 0 0 Z " fill="#BDBDBB" transform="translate(148,260)"/>
<path d="M0 0 C2.04119788 1.61594832 4.04072937 3.2856382 6 5 C6 5.66 6 6.32 6 7 C1.25 6.125 1.25 6.125 -1 5 C-0.67 3.35 -0.34 1.7 0 0 Z " fill="#D1D1D2" transform="translate(99,350)"/>
<path d="M0 0 C0.66 0.66 1.32 1.32 2 2 C1.67 2.66 1.34 3.32 1 4 C0.76827173 6.54615009 0.58105471 9.07396225 0.4375 11.625 C0.39431641 12.33140625 0.35113281 13.0378125 0.30664062 13.765625 C0.20055249 15.51018537 0.09977111 17.25506697 0 19 C-0.33 19 -0.66 19 -1 19 C-1.02683987 16.02077407 -1.04676037 13.04178705 -1.0625 10.0625 C-1.07087891 9.21236328 -1.07925781 8.36222656 -1.08789062 7.48632812 C-1.09111328 6.67744141 -1.09433594 5.86855469 -1.09765625 5.03515625 C-1.10289307 4.2862915 -1.10812988 3.53742676 -1.11352539 2.76586914 C-1 1 -1 1 0 0 Z " fill="#C8C8C8" transform="translate(92,207)"/>
<path d="M0 0 C1.31471568 0.28151087 2.62675767 0.57553339 3.9375 0.875 C4.66839844 1.03742188 5.39929688 1.19984375 6.15234375 1.3671875 C8 2 8 2 9 4 C6.69 4 4.38 4 2 4 C1.34 2.68 0.68 1.36 0 0 Z " fill="#808384" transform="translate(103,352)"/>
<path d="M0 0 C0.66 0.33 1.32 0.66 2 1 C2 5.62 2 10.24 2 15 C1.67 15 1.34 15 1 15 C0.34 12.36 -0.32 9.72 -1 7 C-0.34 7 0.32 7 1 7 C1 5.35 1 3.7 1 2 C0.34 1.67 -0.32 1.34 -1 1 C-0.67 0.67 -0.34 0.34 0 0 Z " fill="#C0C6C6" transform="translate(101,326)"/>
<path d="M0 0 C1.98 0 3.96 0 6 0 C6.33 1.32 6.66 2.64 7 4 C4.69 3.67 2.38 3.34 0 3 C0 2.01 0 1.02 0 0 Z " fill="#A7A7A5" transform="translate(107,258)"/>
<path d="M0 0 C1.65 0 3.3 0 5 0 C5 1.32 5 2.64 5 4 C2.69 4 0.38 4 -2 4 C-1.34 3.67 -0.68 3.34 0 3 C0 2.01 0 1.02 0 0 Z " fill="#DDDDDC" transform="translate(121,257)"/>
<path d="M0 0 C0.99 0 1.98 0 3 0 C3 0.99 3 1.98 3 3 C2.34 3 1.68 3 1 3 C1 6.96 1 10.92 1 15 C0.67 15 0.34 15 0 15 C0 10.05 0 5.1 0 0 Z " fill="#CFCFCF" transform="translate(105,272)"/>
<path d="M0 0 C2.31 0 4.62 0 7 0 C7 0.99 7 1.98 7 3 C4.69 3 2.38 3 0 3 C0 2.01 0 1.02 0 0 Z " fill="#E9E9E7" transform="translate(119,254)"/>
<path d="M0 0 C0.33 0.99 0.66 1.98 1 3 C-2.80504787 4.79682816 -3.70600835 5.07349791 -8 4 C-5.36 2.68 -2.72 1.36 0 0 Z " fill="#7B7E80" transform="translate(145,351)"/>
<path d="M0 0 C0.33 0 0.66 0 1 0 C1.33 4.29 1.66 8.58 2 13 C1.01 13.33 0.02 13.66 -1 14 C-0.67 9.38 -0.34 4.76 0 0 Z " fill="#C8C8C8" transform="translate(139,299)"/>
<path d="M0 0 C1.98 0.99 1.98 0.99 4 2 C3.67 3.65 3.34 5.3 3 7 C2.01 7 1.02 7 0 7 C0 4.69 0 2.38 0 0 Z " fill="#B1B2AF" transform="translate(153,252)"/>
<path d="M0 0 C0.99 0.495 0.99 0.495 2 1 C2.8125 4.375 2.8125 4.375 3 8 C2.01 8.99 1.02 9.98 0 11 C0 7.37 0 3.74 0 0 Z " fill="#ECECEC" transform="translate(145,203)"/>
<path d="M0 0 C0.66 0 1.32 0 2 0 C3.25 6.625 3.25 6.625 1 10 C0.67 6.7 0.34 3.4 0 0 Z " fill="#A7A2A1" transform="translate(97,339)"/>
<path d="M0 0 C0.66 0 1.32 0 2 0 C2 2.31 2 4.62 2 7 C1.01 6.67 0.02 6.34 -1 6 C-1.042721 4.33388095 -1.04063832 2.66617115 -1 1 C-0.67 0.67 -0.34 0.34 0 0 Z " fill="#929290" transform="translate(124,321)"/>
<path d="M0 0 C0.66 0 1.32 0 2 0 C2 1.65 2 3.3 2 5 C0.35 5.66 -1.3 6.32 -3 7 C-2.67 5.35 -2.34 3.7 -2 2 C-1.34 2 -0.68 2 0 2 C0 1.34 0 0.68 0 0 Z " fill="#C1C1BF" transform="translate(144,256)"/>
<path d="M0 0 C2.64 0 5.28 0 8 0 C7.01 0.33 6.02 0.66 5 1 C5 1.66 5 2.32 5 3 C3.35 3 1.7 3 0 3 C0 2.01 0 1.02 0 0 Z " fill="#B1B2B1" transform="translate(122,355)"/>
<path d="M0 0 C0.99 0.33 1.98 0.66 3 1 C2.01 1.495 2.01 1.495 1 2 C0.83312552 4.41645782 0.83312552 4.41645782 1 7 C1.66 7.66 2.32 8.32 3 9 C1.68 9 0.36 9 -1 9 C-1.09765625 2.84765625 -1.09765625 2.84765625 -1 1 C-0.67 0.67 -0.34 0.34 0 0 Z " fill="#C0C0BE" transform="translate(123,320)"/>
<path d="M0 0 C2.475 0.495 2.475 0.495 5 1 C5.33 1.99 5.66 2.98 6 4 C4.35 4 2.7 4 1 4 C0.67 2.68 0.34 1.36 0 0 Z " fill="#C2C2C0" transform="translate(113,258)"/>
<path d="M0 0 C1.98 0 3.96 0 6 0 C6 0.99 6 1.98 6 3 C4.02 3 2.04 3 0 3 C0 2.01 0 1.02 0 0 Z " fill="#A7A7A7" transform="translate(121,233)"/>
<path d="M0 0 C-0.33 2.31 -0.66 4.62 -1 7 C-1.33 6.01 -1.66 5.02 -2 4 C-2.99 3.67 -3.98 3.34 -5 3 C-2.25 0 -2.25 0 0 0 Z " fill="#DDDFDF" transform="translate(101,323)"/>
<path d="M0 0 C-0.99 0 -1.98 0 -3 0 C-3.33 0.99 -3.66 1.98 -4 3 C-5.65 3 -7.3 3 -9 3 C-5.83583464 -0.30799106 -4.50236011 -1.35070803 0 0 Z " fill="#E0E0E0" transform="translate(107,194)"/>
</svg>
